<svg width="16" height="17" viewBox="0 0 16 17" fill="none" xmlns="http://www.w3.org/2000/svg">
<path d="M7.99992 10.1107C6.57992 10.1107 5.41992 8.9574 5.41992 7.53073C5.41992 6.10406 6.57992 4.9574 7.99992 4.9574C9.41992 4.9574 10.5799 6.11073 10.5799 7.5374C10.5799 8.96406 9.41992 10.1107 7.99992 10.1107ZM7.99992 5.9574C7.13326 5.9574 6.41992 6.66406 6.41992 7.5374C6.41992 8.41073 7.12659 9.1174 7.99992 9.1174C8.87326 9.1174 9.57992 8.41073 9.57992 7.5374C9.57992 6.66406 8.86659 5.9574 7.99992 5.9574Z" fill="white"/>
<path d="M7.99914 15.8374C7.01247 15.8374 6.01914 15.464 5.24581 14.724C3.27914 12.8307 1.10581 9.81071 1.92581 6.21738C2.66581 2.95738 5.51247 1.49738 7.99914 1.49738C7.99914 1.49738 7.99914 1.49738 8.00581 1.49738C10.4925 1.49738 13.3391 2.95738 14.0791 6.22404C14.8925 9.81738 12.7191 12.8307 10.7525 14.724C9.97914 15.464 8.98581 15.8374 7.99914 15.8374ZM7.99914 2.49738C6.05914 2.49738 3.56581 3.53071 2.90581 6.43738C2.18581 9.57738 4.15914 12.284 5.94581 13.9974C7.09914 15.1107 8.90581 15.1107 10.0591 13.9974C11.8391 12.284 13.8125 9.57738 13.1058 6.43738C12.4391 3.53071 9.93914 2.49738 7.99914 2.49738Z" fill="white"/>
</svg>
