<svg width="16" height="17" viewBox="0 0 16 17" fill="none" xmlns="http://www.w3.org/2000/svg">
<path d="M11.634 15.8307C10.8807 15.8307 10.0873 15.6507 9.26732 15.304C8.46732 14.964 7.66065 14.4974 6.87398 13.9307C6.09398 13.3574 5.34065 12.7174 4.62732 12.0174C3.92065 11.304 3.28065 10.5507 2.71398 9.77738C2.14065 8.97738 1.68065 8.17738 1.35398 7.40404C1.00732 6.57738 0.833984 5.77738 0.833984 5.02404C0.833984 4.50404 0.927318 4.01071 1.10732 3.55071C1.29398 3.07738 1.59398 2.63738 2.00065 2.25738C2.51398 1.75071 3.10065 1.49738 3.72732 1.49738C3.98732 1.49738 4.25398 1.55738 4.48065 1.66404C4.74065 1.78404 4.96065 1.96404 5.12065 2.20404L6.66732 4.38404C6.80732 4.57738 6.91398 4.76404 6.98732 4.95071C7.07398 5.15071 7.12065 5.35071 7.12065 5.54404C7.12065 5.79738 7.04732 6.04404 6.90732 6.27738C6.80732 6.45738 6.65398 6.65071 6.46065 6.84404L6.00732 7.31738C6.01398 7.33738 6.02065 7.35071 6.02732 7.36404C6.10732 7.50404 6.26732 7.74404 6.57398 8.10404C6.90065 8.47738 7.20732 8.81738 7.51398 9.13071C7.90732 9.51738 8.23398 9.82404 8.54065 10.0774C8.92065 10.3974 9.16732 10.5574 9.31398 10.6307L9.30065 10.664L9.78732 10.184C9.99398 9.97738 10.194 9.82404 10.3873 9.72404C10.754 9.49738 11.2207 9.45738 11.6873 9.65071C11.8607 9.72404 12.0473 9.82404 12.2473 9.96404L14.4607 11.5374C14.7073 11.704 14.8873 11.9174 14.994 12.1707C15.094 12.424 15.1407 12.6574 15.1407 12.8907C15.1407 13.2107 15.0673 13.5307 14.9273 13.8307C14.7873 14.1307 14.614 14.3907 14.394 14.6307C14.014 15.0507 13.6007 15.3507 13.1207 15.544C12.6607 15.7307 12.1607 15.8307 11.634 15.8307ZM3.72732 2.49738C3.36065 2.49738 3.02065 2.65738 2.69398 2.97738C2.38732 3.26404 2.17398 3.57738 2.04065 3.91738C1.90065 4.26404 1.83398 4.63071 1.83398 5.02404C1.83398 5.64404 1.98065 6.31738 2.27398 7.01071C2.57398 7.71738 2.99398 8.45071 3.52732 9.18404C4.06065 9.91738 4.66732 10.6307 5.33398 11.304C6.00065 11.964 6.72065 12.5774 7.46065 13.1174C8.18065 13.644 8.92065 14.0707 9.65398 14.3774C10.794 14.864 11.8607 14.9774 12.7407 14.6107C13.0807 14.4707 13.3807 14.2574 13.654 13.9507C13.8073 13.784 13.9273 13.604 14.0273 13.3907C14.1073 13.224 14.1473 13.0507 14.1473 12.8774C14.1473 12.7707 14.1273 12.664 14.074 12.544C14.054 12.504 14.014 12.4307 13.8873 12.344L11.674 10.7707C11.5407 10.6774 11.4207 10.6107 11.3073 10.564C11.1607 10.504 11.1007 10.444 10.874 10.584C10.7407 10.6507 10.6207 10.7507 10.4873 10.884L9.98065 11.384C9.72065 11.6374 9.32065 11.6974 9.01398 11.584L8.83398 11.504C8.56065 11.3574 8.24065 11.1307 7.88732 10.8307C7.56732 10.5574 7.22065 10.2374 6.80065 9.82404C6.47398 9.49071 6.14732 9.13738 5.80732 8.74404C5.49398 8.37738 5.26732 8.06404 5.12732 7.80404L5.04732 7.60404C5.00732 7.45071 4.99398 7.36404 4.99398 7.27071C4.99398 7.03071 5.08065 6.81738 5.24732 6.65071L5.74732 6.13071C5.88065 5.99738 5.98065 5.87071 6.04732 5.75738C6.10065 5.67071 6.12065 5.59738 6.12065 5.53071C6.12065 5.47738 6.10065 5.39738 6.06732 5.31738C6.02065 5.21071 5.94732 5.09071 5.85398 4.96404L4.30732 2.77738C4.24065 2.68404 4.16065 2.61738 4.06065 2.57071C3.95398 2.52404 3.84065 2.49738 3.72732 2.49738ZM9.30065 10.6707L9.19398 11.124L9.37398 10.6574C9.34065 10.6507 9.31398 10.6574 9.30065 10.6707Z" fill="white"/>
<path d="M12.3333 7.16408C12.06 7.16408 11.8333 6.93742 11.8333 6.66408C11.8333 6.42408 11.5933 5.92408 11.1933 5.49742C10.8 5.07742 10.3667 4.83075 10 4.83075C9.72667 4.83075 9.5 4.60408 9.5 4.33075C9.5 4.05742 9.72667 3.83075 10 3.83075C10.6467 3.83075 11.3267 4.17742 11.92 4.81075C12.4733 5.40408 12.8333 6.13075 12.8333 6.66408C12.8333 6.93742 12.6067 7.16408 12.3333 7.16408Z" fill="white"/>
<path d="M14.6667 7.16404C14.3933 7.16404 14.1667 6.93738 14.1667 6.66404C14.1667 4.36404 12.3 2.49738 10 2.49738C9.72667 2.49738 9.5 2.27071 9.5 1.99738C9.5 1.72404 9.72667 1.49738 10 1.49738C12.8467 1.49738 15.1667 3.81738 15.1667 6.66404C15.1667 6.93738 14.94 7.16404 14.6667 7.16404Z" fill="white"/>
</svg>
