<svg width="16" height="17" viewBox="0 0 16 17" fill="none" xmlns="http://www.w3.org/2000/svg">
<path d="M11.334 14.8307H4.66732C2.23398 14.8307 0.833984 13.4307 0.833984 10.9974V6.33071C0.833984 3.89738 2.23398 2.49738 4.66732 2.49738H11.334C13.7673 2.49738 15.1673 3.89738 15.1673 6.33071V10.9974C15.1673 13.4307 13.7673 14.8307 11.334 14.8307ZM4.66732 3.49738C2.76065 3.49738 1.83398 4.42404 1.83398 6.33071V10.9974C1.83398 12.904 2.76065 13.8307 4.66732 13.8307H11.334C13.2407 13.8307 14.1673 12.904 14.1673 10.9974V6.33071C14.1673 4.42404 13.2407 3.49738 11.334 3.49738H4.66732Z" fill="white"/>
<path d="M7.9992 9.24404C7.4392 9.24404 6.87254 9.07071 6.4392 8.71738L4.35253 7.05071C4.1392 6.87738 4.0992 6.56404 4.27254 6.35071C4.44587 6.13737 4.75921 6.09738 4.97254 6.27071L7.0592 7.93738C7.56587 8.34405 8.42586 8.34405 8.93253 7.93738L11.0192 6.27071C11.2325 6.09738 11.5525 6.13071 11.7192 6.35071C11.8925 6.56404 11.8592 6.88404 11.6392 7.05071L9.55254 8.71738C9.12587 9.07071 8.5592 9.24404 7.9992 9.24404Z" fill="white"/>
</svg>
