<svg width="16" height="17" viewBox="0 0 16 17" fill="none" xmlns="http://www.w3.org/2000/svg">
<path d="M2.5 8.66406C2.77614 8.66406 3 8.44021 3 8.16406C3 7.88792 2.77614 7.66406 2.5 7.66406C2.22386 7.66406 2 7.88792 2 8.16406C2 8.44021 2.22386 8.66406 2.5 8.66406Z" fill="white"/>
<path d="M5 1.66406C3.89543 1.66406 3 2.55949 3 3.66406V5.66406H2C0.895431 5.66406 0 6.55949 0 7.66406V10.6641C0 11.7686 0.895431 12.6641 2 12.6641H3V13.6641C3 14.7686 3.89543 15.6641 5 15.6641H11C12.1046 15.6641 13 14.7686 13 13.6641V12.6641H14C15.1046 12.6641 16 11.7686 16 10.6641V7.66406C16 6.55949 15.1046 5.66406 14 5.66406H13V3.66406C13 2.55949 12.1046 1.66406 11 1.66406H5ZM4 3.66406C4 3.11178 4.44772 2.66406 5 2.66406H11C11.5523 2.66406 12 3.11178 12 3.66406V5.66406H4V3.66406ZM5 8.66406C3.89543 8.66406 3 9.55949 3 10.6641V11.6641H2C1.44772 11.6641 1 11.2163 1 10.6641V7.66406C1 7.11178 1.44772 6.66406 2 6.66406H14C14.5523 6.66406 15 7.11178 15 7.66406V10.6641C15 11.2163 14.5523 11.6641 14 11.6641H13V10.6641C13 9.55949 12.1046 8.66406 11 8.66406H5ZM12 10.6641V13.6641C12 14.2163 11.5523 14.6641 11 14.6641H5C4.44772 14.6641 4 14.2163 4 13.6641V10.6641C4 10.1118 4.44772 9.66406 5 9.66406H11C11.5523 9.66406 12 10.1118 12 10.6641Z" fill="white"/>
</svg>
