<svg width="44" height="44" viewBox="0 0 44 44" fill="none" xmlns="http://www.w3.org/2000/svg">
<path d="M31.5625 39C35.6701 39 39 35.6701 39 31.5625C39 27.4549 35.6701 24.125 31.5625 24.125C27.4549 24.125 24.125 27.4549 24.125 31.5625C24.125 35.6701 27.4549 39 31.5625 39ZM32.625 28.375V30.5H34.75C35.3368 30.5 35.8125 30.9757 35.8125 31.5625C35.8125 32.1493 35.3368 32.625 34.75 32.625H32.625V34.75C32.625 35.3368 32.1493 35.8125 31.5625 35.8125C30.9757 35.8125 30.5 35.3368 30.5 34.75V32.625H28.375C27.7882 32.625 27.3125 32.1493 27.3125 31.5625C27.3125 30.9757 27.7882 30.5 28.375 30.5H30.5V28.375C30.5 27.7882 30.9757 27.3125 31.5625 27.3125C32.1493 27.3125 32.625 27.7882 32.625 28.375Z" fill="white"/>
<path d="M28.375 15.625C28.375 19.1458 25.5208 22 22 22C18.4792 22 15.625 19.1458 15.625 15.625C15.625 12.1042 18.4792 9.25 22 9.25C25.5208 9.25 28.375 12.1042 28.375 15.625ZM22 19.875C24.3472 19.875 26.25 17.9722 26.25 15.625C26.25 13.2778 24.3472 11.375 22 11.375C19.6528 11.375 17.75 13.2778 17.75 15.625C17.75 17.9722 19.6528 19.875 22 19.875Z" fill="white"/>
<path d="M22.5441 34.75C22.3042 34.0711 22.1387 33.357 22.0575 32.6176H11.375C11.378 32.0932 11.7017 30.5222 13.1432 29.0807C14.5293 27.6947 17.1356 26.25 22 26.25C22.5535 26.25 23.0779 26.2687 23.5745 26.3039C24.0529 25.5786 24.6275 24.9222 25.2801 24.3531C24.2888 24.2061 23.1985 24.125 22 24.125C11.375 24.125 9.25 30.5 9.25 32.625C9.25 34.75 11.375 34.75 11.375 34.75H22.5441Z" fill="white"/>
</svg>
