<svg width="337" height="64" viewBox="0 0 337 64" fill="none" xmlns="http://www.w3.org/2000/svg">
<path d="M57.3526 35.683C57.137 51.3391 44.3811 63.9615 28.6789 63.9615C12.9766 63.9615 0 51.1235 0 35.2826C0 19.4417 12.956 6.73722 28.6789 6.60376V9.196C14.419 9.32946 2.59737 20.9868 2.59737 35.2775C2.59737 49.5681 14.2958 61.3641 28.6789 61.3641C35.6137 61.3641 42.138 58.6743 47.0606 53.7876C51.932 48.9522 54.6577 42.5306 54.7603 35.683H57.3577H57.3526Z" fill="url(#paint0_linear_296_10942)"/>
<path d="M54.1957 35.6831C53.9801 49.6349 42.5127 60.9535 28.53 60.9535C21.785 60.9535 15.6407 58.3356 11.0516 54.07C10.9592 53.9827 10.8669 53.8954 10.7745 53.803C6.00577 49.1473 3.04395 42.6539 3.04395 35.4777C3.04395 21.3975 14.4652 9.92495 28.53 9.85309V25.7607H18.813V45.1948H38.247V45.0664H38.2727V35.6882H54.2008L54.1957 35.6831Z" fill="url(#paint1_linear_296_10942)"/>
<path d="M28.6172 28.666V26.3817H19.5264V44.5684H37.7131V35.683H35.5572V42.469H21.595V28.666H28.6172Z" fill="url(#paint2_linear_296_10942)"/>
<path d="M50.674 21.1461C50.674 20.9203 50.674 20.6893 50.674 20.4583C50.5406 12.8612 48.0202 8.94464 46.8447 7.52789V26.7823C47.3016 25.6633 47.9586 24.4621 48.9082 23.2045C49.4934 22.4243 50.0889 21.7467 50.6792 21.1512L50.674 21.1461Z" fill="url(#paint3_linear_296_10942)"/>
<path d="M51.0285 21.2899C50.9669 21.3515 50.9053 21.4079 50.8437 21.4695C50.7821 21.5311 50.7205 21.5979 50.6589 21.6595C50.1661 22.1728 49.6733 22.7477 49.1857 23.3996C47.9896 24.9909 47.2607 26.4949 46.8296 27.8398C46.768 28.04 46.7115 28.235 46.6602 28.4249C46.7269 28.6867 46.7834 28.9434 46.8296 29.1898C47.1375 30.8478 47.0143 32.1875 46.8296 33.0807C46.8193 33.1218 46.8141 33.1628 46.8039 33.2039L46.8296 33.168L48.7493 30.4936L49.2678 29.7698L49.7144 29.1436L58.0814 17.476C56.7981 17.6607 53.9543 18.3948 51.0233 21.2899H51.0285Z" fill="url(#paint4_linear_296_10942)"/>
<path d="M46.4803 29.277C46.4546 29.1282 46.4238 28.9793 46.3879 28.8305C46.3571 28.697 46.3263 28.5635 46.2904 28.4301C45.9003 26.9363 45.1406 25.2321 43.7649 23.4047C43.1592 22.5988 42.5381 21.9007 41.9272 21.295C38.9962 18.3999 36.1524 17.6659 34.8691 17.4811L43.2362 29.1487L46.1467 33.2039L46.3622 33.5067C46.3725 33.4759 46.3776 33.4451 46.3879 33.4143C46.4187 33.2963 46.4495 33.1628 46.4803 33.014C46.6548 32.1619 46.7729 30.8683 46.4803 29.2719V29.277Z" fill="url(#paint5_linear_296_10942)"/>
<path d="M61.7154 13.5387L58.9281 17.3885C58.9281 17.3885 58.9178 17.3577 58.9127 17.3423L62.4084 11.9217L62.0234 11.6907L58.5482 17.0857C57.6191 17.1473 54.4109 17.599 51.0282 20.8021C51.0282 20.6891 51.0282 20.5762 51.0282 20.4581C50.8793 11.9269 47.7892 7.98975 46.7933 6.93745L46.8344 0.0385132H46.3827L46.3416 6.75779C46.3314 6.75779 46.3262 6.76806 46.316 6.77833L46.0747 1.76325L45.623 1.78378L45.8848 7.24544C44.6836 8.65192 42.0657 12.6147 41.9323 20.453C41.9323 20.5711 41.9323 20.684 41.9323 20.7969C38.7035 17.7324 35.6288 17.1883 34.5559 17.0908L31.0705 11.6856L30.6855 11.9166L34.094 17.2037C34.094 17.2037 34.0837 17.2397 34.0734 17.2602L31.3785 13.5387L31.0089 13.7851L33.9246 17.8146C33.5652 19.3699 33.2059 23.23 36.563 28.1476C40.187 33.445 44.5604 34.1739 45.9977 34.2663V35.6882H47.0962V34.2509C48.6515 34.1226 52.8761 33.291 56.3975 28.1425C59.6621 23.3686 59.4157 19.5855 59.0667 17.948L62.085 13.7799L61.7154 13.5335V13.5387ZM46.8395 7.52776C48.015 8.94964 50.5405 12.8611 50.674 20.4581C50.674 20.6943 50.674 20.9253 50.674 21.1511C50.0786 21.7414 49.4831 22.4241 48.9031 23.1992C47.9534 24.4569 47.2964 25.658 46.8395 26.777V7.52776ZM46.4854 33.0138C46.4546 33.1627 46.4238 33.2961 46.393 33.4142C46.3827 33.4399 46.3776 33.4707 46.3673 33.5066L46.1466 33.2037L43.2361 29.1486L34.8691 17.4809C36.1575 17.6708 38.9961 18.3998 41.9271 21.2948C42.5431 21.9006 43.1591 22.5987 43.7648 23.4097C45.1353 25.2371 45.895 26.9413 46.2903 28.4299C46.3262 28.5685 46.357 28.702 46.3878 28.8303C46.4238 28.9843 46.4546 29.1332 46.4802 29.2769C46.6086 29.9801 46.6547 30.6218 46.6547 31.1915C46.6547 31.9204 46.5778 32.5364 46.4802 33.0138H46.4854ZM49.7295 29.1434L49.2778 29.7645L48.7593 30.4883L46.8395 33.1627L46.8139 33.1986C46.8241 33.1575 46.8293 33.1165 46.8395 33.0754C47.0243 32.1874 47.1475 30.8425 46.8395 29.1896C46.7933 28.9381 46.7369 28.6866 46.6701 28.4248C46.7215 28.2349 46.7779 28.0398 46.8395 27.8396C47.2707 26.4947 47.9996 24.9907 49.1957 23.3994C49.6833 22.7475 50.1761 22.1726 50.6689 21.6593C50.7253 21.5977 50.7921 21.531 50.8485 21.4694L51.0333 21.2846C53.9695 18.3895 56.8081 17.6606 58.0914 17.4707L49.7244 29.1383L49.7295 29.1434Z" fill="url(#paint6_linear_296_10942)"/>
<path d="M6.41601 40.38L6.01562 39.0454L12.7246 39.3893L13.161 40.8471L7.74036 44.7997L7.32971 43.424L8.46413 42.6591L7.79169 40.4211L6.41601 40.3749V40.38ZM8.94152 40.4519L9.4035 41.997L11.5748 40.5289V40.5135L8.94152 40.457V40.4519Z" fill="white"/>
<path d="M13.6794 47.6073L15.3271 49.676L12.6579 51.8011L12.1086 51.1133L12.6476 50.5178C12.1343 50.4973 11.3849 50.4768 10.6662 49.5733C9.7166 48.3824 9.71146 46.6166 11.4465 45.2307C12.7913 44.1579 14.6598 43.8909 15.9842 45.5489L15.9944 45.5643C17.2007 47.0838 16.6925 48.4646 16.056 49.0651L15.2296 48.0282C15.4246 47.8743 15.7634 47.0273 15.1834 46.2984C14.5982 45.5592 13.5408 45.282 12.2729 46.2984C10.9229 47.3763 11.159 48.3927 11.7185 49.0959C11.8982 49.3218 12.5912 50.0096 13.7615 49.4296L12.8427 48.2798L13.6794 47.6176V47.6073Z" fill="white"/>
<path d="M18.6791 48.67L21.5023 50.1741C22.9858 50.9646 22.6727 52.2068 22.416 52.6893C22.0875 53.3053 21.4972 53.6646 20.8453 53.5568C21.1944 54.0034 21.3535 54.3062 20.7991 55.3483C20.3628 56.1644 20.255 56.3646 20.4552 56.5905L20.3782 56.7393L19.0898 56.0515C19.1514 55.7435 19.2592 55.4355 19.5672 54.8606C19.9727 54.1009 20.0856 53.7775 19.2232 53.3207L18.0169 52.679L16.8517 54.8657L15.707 54.2549L18.6843 48.6752L18.6791 48.67ZM19.8803 52.4634C20.486 52.7868 20.8915 52.7355 21.1892 52.1811C21.3484 51.8834 21.4459 51.3803 20.7632 51.0159L19.3105 50.2408L18.5149 51.7345L19.8803 52.4634Z" fill="white"/>
<path d="M24.7154 57.7812L23.4219 57.5143L24.7 51.3134L25.9936 51.5803L24.7154 57.7812Z" fill="white"/>
<path d="M28.8532 56.2054C28.8892 56.5545 29.115 57.2115 30.2648 57.1242C30.8911 57.078 31.5738 56.8727 31.5225 56.2054C31.4865 55.7126 30.9989 55.6202 30.3213 55.5124L29.6335 55.4046C28.5966 55.2455 27.5956 55.0915 27.4878 53.7056C27.4365 53.0023 27.7188 51.7344 29.7669 51.5804C31.7021 51.4316 32.313 52.6584 32.3848 53.4335L31.1169 53.531C31.0605 53.2538 30.9065 52.5917 29.7515 52.6789C29.2485 52.7149 28.6684 52.9459 28.7095 53.5208C28.7454 54.0135 29.1612 54.0854 29.4281 54.1265L30.9938 54.3883C31.8715 54.532 32.6877 54.8246 32.7749 55.959C32.9187 57.8583 30.9989 58.1714 30.4445 58.2125C28.1397 58.387 27.6469 57.0934 27.5853 56.3081L28.8481 56.2105L28.8532 56.2054Z" fill="white"/>
<path d="M38.2566 50.1946L35.2229 51.6319L35.7927 52.833L38.58 51.5138L39.0574 52.525L36.2701 53.8442L36.9733 55.3277L40.1456 53.8288L40.623 54.8401L36.2804 56.8933L33.5752 51.175L37.7792 49.1833L38.2566 50.1946Z" fill="white"/>
<path d="M43.1741 46.8478C42.8251 46.6682 42.1629 46.3294 41.4186 47.1301C40.9874 47.5921 40.6589 48.5674 41.9679 49.784C42.7994 50.5591 43.8569 50.9235 44.6166 50.1074C45.1145 49.5735 45.1607 48.9165 44.6987 48.2697L45.597 47.3047C46.4234 48.434 46.5158 49.748 45.4327 50.9081C44.288 52.1401 42.63 52.2479 41.0336 50.7593C39.4167 49.2501 39.4578 47.5511 40.5716 46.355C41.8601 44.9691 43.3384 45.2925 44.0724 45.8777L43.1741 46.8478Z" fill="white"/>
<path d="M43.8776 40.8368C44.1599 40.0463 45.2328 38.0906 48.0355 39.0864C50.833 40.0771 50.4378 42.2741 50.1606 43.0646C49.8834 43.8551 48.8054 45.8109 46.0027 44.815C43.2052 43.8243 43.6004 41.6222 43.8776 40.8368ZM49.1032 42.6899C49.3393 42.0175 49.2623 40.9241 47.594 40.3287C45.9257 39.7384 45.1712 40.534 44.935 41.2116C44.6989 41.884 44.7759 42.9774 46.4442 43.5728C48.1125 44.1631 48.867 43.3675 49.1032 42.6899Z" fill="white"/>
<path d="M75.714 47.3148C75.3444 47.1505 74.9646 47.0684 74.5693 47.0684C74.0509 47.0684 73.5786 47.1916 73.1423 47.4431C72.7111 47.6946 72.3672 48.0334 72.1157 48.4646C71.8642 48.8958 71.7358 49.368 71.7358 49.8865C71.7358 50.4049 71.8642 50.8669 72.1157 51.3032C72.3672 51.7396 72.7111 52.0783 73.1423 52.3299C73.5735 52.5814 74.0509 52.7097 74.5693 52.7097C74.9543 52.7097 75.329 52.6327 75.7038 52.4736C76.0733 52.3145 76.4019 52.104 76.6893 51.8268L77.295 52.489C76.9254 52.8534 76.4943 53.1358 76.0066 53.3411C75.519 53.5464 75.021 53.6491 74.518 53.6491C73.8199 53.6491 73.1782 53.4848 72.5982 53.1512C72.0182 52.8175 71.5613 52.3658 71.2277 51.796C70.894 51.2211 70.7246 50.5897 70.7246 49.8968C70.7246 49.2038 70.894 48.5827 71.2328 48.018C71.5716 47.4482 72.0336 47.0017 72.6239 46.6731C73.209 46.3446 73.8558 46.1804 74.5642 46.1804C75.0724 46.1804 75.5703 46.2779 76.0477 46.4678C76.5251 46.6577 76.9408 46.9298 77.2899 47.2789L76.6945 48.0026C76.4173 47.71 76.0887 47.479 75.7192 47.3148H75.714Z" fill="#F7941D"/>
<path d="M85.375 48.5724C85.7446 48.9522 85.9293 49.4809 85.9293 50.1483V53.5772H84.954V50.41C84.954 49.9429 84.8206 49.5785 84.5588 49.3167C84.297 49.0549 83.9377 48.9214 83.4757 48.9214C82.9367 48.9266 82.5107 49.1114 82.1975 49.4655C81.8844 49.8197 81.7253 50.2817 81.7253 50.8464V53.5721H80.75V45.7953H81.7253V49.2243C82.0949 48.4184 82.8033 48.0129 83.8402 47.9975C84.4921 47.9975 85.0002 48.1874 85.3698 48.5672L85.375 48.5724Z" fill="#F7941D"/>
<path d="M93.1511 53.5771V52.802C92.7405 53.3461 92.0937 53.6182 91.2108 53.6182C90.8258 53.6182 90.487 53.5463 90.1996 53.3974C89.9121 53.2486 89.6863 53.0484 89.5271 52.7917C89.368 52.5351 89.291 52.2425 89.291 51.9242C89.291 51.4263 89.4758 51.0362 89.8403 50.7436C90.2047 50.4561 90.718 50.3073 91.3751 50.297H93.1357V50.0352C93.1357 49.6451 93.0125 49.3422 92.7764 49.1267C92.5352 48.9111 92.1861 48.8084 91.7241 48.8084C91.1646 48.8084 90.5948 49.0086 90.0148 49.4038L89.6041 48.7314C90.0045 48.4747 90.369 48.2848 90.7078 48.1719C91.0466 48.059 91.4521 47.9974 91.9192 47.9974C92.6122 47.9974 93.146 48.1668 93.5207 48.5055C93.8954 48.8443 94.0905 49.3166 94.0956 49.9274L94.1059 53.5771H93.1409H93.1511ZM92.5711 52.4837C92.8893 52.263 93.0793 51.9704 93.1409 51.6111V51.0567H91.5188C91.0773 51.0567 90.754 51.1234 90.5384 51.2569C90.3228 51.3904 90.2201 51.6008 90.2201 51.8883C90.2201 52.1757 90.3279 52.4016 90.5435 52.571C90.7591 52.7404 91.0517 52.8225 91.411 52.8225C91.8627 52.8225 92.2528 52.7147 92.5711 52.494V52.4837ZM91.3289 46.3034C91.4623 46.442 91.6266 46.5139 91.8217 46.5139C92.0167 46.5139 92.181 46.442 92.3144 46.3034C92.4479 46.1648 92.5198 45.9903 92.5352 45.7798H93.2179C93.2025 46.2008 93.0639 46.5395 92.8021 46.7962C92.5403 47.0529 92.2118 47.1863 91.8217 47.1863C91.4315 47.1863 91.0928 47.058 90.8361 46.7962C90.5794 46.5344 90.4408 46.2008 90.4254 45.7798H91.1082C91.1236 45.9903 91.1954 46.1648 91.3289 46.3034Z" fill="#F7941D"/>
<path d="M106.605 48.5775C106.969 48.9625 107.149 49.4861 107.149 50.1482V53.5772H106.163V50.41C106.163 49.9429 106.035 49.5733 105.784 49.3115C105.527 49.0446 105.178 48.9111 104.731 48.9111C104.208 48.9265 103.797 49.1113 103.494 49.4655C103.191 49.8197 103.043 50.2817 103.043 50.8361V53.572H102.057V50.4049C102.057 49.9378 101.929 49.5682 101.677 49.3064C101.426 49.0395 101.071 48.906 100.62 48.906C100.096 48.9214 99.6803 49.1062 99.3775 49.4604C99.0746 49.8146 98.9206 50.2766 98.9206 50.8309V53.5669H97.9453V48.0231H98.9206V49.1883C99.2851 48.4081 99.9729 48.0077 100.984 47.9923C101.492 47.9923 101.918 48.1155 102.257 48.3568C102.596 48.6032 102.827 48.9419 102.945 49.3834C103.289 48.4697 104.008 48.0026 105.106 47.9872C105.743 47.9872 106.24 48.1822 106.605 48.5621V48.5775Z" fill="#F7941D"/>
<path d="M115.881 45.8004H116.856V53.5771H115.881V45.8004Z" fill="#F7941D"/>
<path d="M124.689 48.3568C125.12 48.5929 125.454 48.9266 125.695 49.3475C125.937 49.7684 126.055 50.2561 126.055 50.8002C126.055 51.3443 125.937 51.8319 125.695 52.258C125.454 52.684 125.12 53.0177 124.689 53.2538C124.258 53.4899 123.77 53.608 123.216 53.608C122.662 53.608 122.164 53.4899 121.733 53.2538C121.301 53.0177 120.968 52.684 120.727 52.2631C120.485 51.8422 120.367 51.3546 120.367 50.8002C120.367 50.2458 120.49 49.7736 120.727 49.3475C120.963 48.9215 121.301 48.5929 121.733 48.3568C122.164 48.1207 122.657 48.0026 123.216 48.0026C123.776 48.0026 124.258 48.1207 124.689 48.3568ZM122.246 49.1011C121.964 49.2705 121.743 49.5015 121.584 49.7992C121.425 50.0969 121.348 50.4306 121.348 50.8105C121.348 51.1903 121.425 51.5394 121.584 51.8371C121.743 52.1399 121.964 52.3709 122.246 52.5352C122.528 52.6994 122.852 52.7816 123.216 52.7816C123.581 52.7816 123.894 52.6994 124.176 52.5352C124.458 52.3709 124.679 52.1399 124.838 51.8371C124.997 51.5342 125.074 51.1954 125.074 50.8105C125.074 50.4255 124.997 50.0969 124.838 49.7992C124.679 49.5015 124.463 49.2705 124.176 49.1011C123.894 48.9317 123.575 48.8496 123.216 48.8496C122.857 48.8496 122.528 48.9317 122.246 49.1011Z" fill="#F7941D"/>
<path d="M139.262 48.0283V53.0074C139.262 53.5413 139.144 54.0033 138.913 54.4037C138.677 54.804 138.348 55.1069 137.922 55.3225C137.496 55.5381 136.998 55.6407 136.434 55.6407C135.617 55.6407 134.853 55.3841 134.149 54.8656L134.581 54.1521C134.853 54.378 135.135 54.5422 135.427 54.65C135.72 54.7578 136.043 54.8143 136.393 54.8143C136.967 54.8143 137.424 54.6552 137.763 54.3318C138.107 54.0084 138.276 53.5823 138.276 53.0434V52.2683C138.081 52.6019 137.814 52.8637 137.481 53.0485C137.147 53.2333 136.762 53.3257 136.326 53.3257C135.828 53.3257 135.392 53.2128 135.012 52.9869C134.632 52.761 134.334 52.4428 134.124 52.0373C133.913 51.6318 133.811 51.1698 133.811 50.6411C133.811 50.1123 133.913 49.6658 134.124 49.2705C134.334 48.8701 134.627 48.5621 135.012 48.3363C135.392 48.1104 135.833 48.0026 136.326 48.0026C136.767 48.0026 137.152 48.095 137.486 48.2747C137.82 48.4543 138.081 48.7161 138.276 49.0498V48.0334H139.262V48.0283ZM137.429 52.2939C137.696 52.1348 137.902 51.9089 138.051 51.6266C138.199 51.3443 138.276 51.026 138.276 50.6667C138.276 50.3074 138.199 49.9789 138.051 49.6966C137.902 49.4142 137.691 49.1935 137.429 49.0293C137.162 48.8701 136.86 48.788 136.516 48.788C136.172 48.788 135.869 48.8701 135.597 49.0293C135.33 49.1884 135.114 49.4091 134.966 49.6966C134.812 49.9789 134.735 50.3023 134.735 50.6667C134.74 51.2108 134.909 51.6574 135.238 52.0065C135.566 52.3555 135.992 52.5301 136.516 52.5301C136.86 52.5301 137.162 52.4479 137.429 52.2888V52.2939Z" fill="#F7941D"/>
<path d="M144.057 45.9955C144.17 46.1136 144.231 46.2624 144.231 46.4472C144.231 46.632 144.175 46.7809 144.057 46.899C143.944 47.017 143.795 47.0786 143.621 47.0786C143.446 47.0786 143.302 47.0221 143.184 46.899C143.071 46.7809 143.01 46.632 143.01 46.4472C143.01 46.2624 143.066 46.1136 143.184 45.9955C143.302 45.8775 143.446 45.8159 143.621 45.8159C143.795 45.8159 143.939 45.8775 144.057 45.9955ZM143.138 48.0282H144.113V53.572H143.138V48.0282Z" fill="#F7941D"/>
<path d="M152.28 48.7572C152.722 49.2654 152.943 49.9686 152.943 50.8669C152.943 51.0055 152.943 51.1133 152.932 51.18H148.554C148.631 51.678 148.836 52.0681 149.18 52.3658C149.519 52.6584 149.934 52.8073 150.432 52.8073C150.761 52.8073 151.064 52.7508 151.351 52.6276C151.634 52.5095 151.88 52.3401 152.09 52.1245L152.624 52.6789C152.352 52.9715 152.024 53.1974 151.639 53.3616C151.254 53.5208 150.828 53.6029 150.361 53.6029C149.816 53.6029 149.334 53.4848 148.908 53.2538C148.482 53.0228 148.158 52.6892 147.922 52.2631C147.686 51.8371 147.573 51.3494 147.573 50.8053C147.573 50.2612 147.691 49.7787 147.922 49.3526C148.158 48.9317 148.482 48.5981 148.903 48.3568C149.324 48.1156 149.801 47.9975 150.34 47.9975C151.197 47.9975 151.849 48.249 152.291 48.7572H152.28ZM152.06 50.4306C152.034 49.9276 151.865 49.5323 151.557 49.2397C151.249 48.9523 150.843 48.8034 150.34 48.8034C149.837 48.8034 149.442 48.9523 149.118 49.2449C148.795 49.5374 148.6 49.9327 148.538 50.4306H152.06Z" fill="#F7941D"/>
<path d="M160.144 48.3568C160.576 48.5929 160.909 48.9266 161.15 49.3475C161.392 49.7684 161.51 50.2561 161.51 50.8002C161.51 51.3443 161.392 51.8319 161.15 52.258C160.909 52.684 160.576 53.0177 160.144 53.2538C159.713 53.4899 159.226 53.608 158.671 53.608C158.117 53.608 157.619 53.4899 157.188 53.2538C156.756 53.0177 156.423 52.684 156.182 52.2631C155.94 51.8422 155.822 51.3546 155.822 50.8002C155.822 50.2458 155.945 49.7736 156.182 49.3475C156.418 48.9215 156.756 48.5929 157.188 48.3568C157.619 48.1207 158.112 48.0026 158.671 48.0026C159.231 48.0026 159.713 48.1207 160.144 48.3568ZM157.701 49.1011C157.419 49.2705 157.198 49.5015 157.039 49.7992C156.88 50.0969 156.803 50.4306 156.803 50.8105C156.803 51.1903 156.88 51.5394 157.039 51.8371C157.198 52.1399 157.419 52.3709 157.701 52.5352C157.983 52.6994 158.307 52.7816 158.671 52.7816C159.036 52.7816 159.349 52.6994 159.631 52.5352C159.913 52.3709 160.134 52.1399 160.293 51.8371C160.452 51.5342 160.529 51.1954 160.529 50.8105C160.529 50.4255 160.452 50.0969 160.293 49.7992C160.134 49.5015 159.919 49.2705 159.631 49.1011C159.349 48.9317 159.03 48.8496 158.671 48.8496C158.312 48.8496 157.983 48.9317 157.701 49.1011Z" fill="#F7941D"/>
<path d="M172.787 53.2075C172.361 53.4796 171.93 53.6182 171.488 53.6182C171.047 53.6182 170.693 53.4898 170.421 53.2229C170.149 52.9611 170.01 52.5659 170.01 52.032V48.9624H169.225V48.2181H170.01V46.7295H170.996V48.2181H172.695V48.9624H170.996V51.8524C170.996 52.1604 171.052 52.3811 171.165 52.5145C171.278 52.648 171.442 52.7147 171.668 52.7147C171.935 52.7147 172.222 52.6275 172.53 52.4529L172.792 53.2075H172.787Z" fill="#F7941D"/>
<path d="M177.818 48.3209C178.151 48.1156 178.552 48.0078 179.014 48.0026V48.9471C178.449 48.9266 177.992 49.0754 177.643 49.3886C177.294 49.7017 177.094 50.1277 177.048 50.6565V53.5823H176.072V48.0386H177.048V49.2346C177.227 48.8342 177.489 48.5313 177.823 48.326L177.818 48.3209Z" fill="#F7941D"/>
<path d="M185.943 48.3566C186.374 48.5928 186.708 48.9264 186.949 49.3473C187.191 49.7683 187.309 50.2559 187.309 50.8C187.309 51.3441 187.191 51.8318 186.949 52.2578C186.708 52.6839 186.374 53.0175 185.943 53.2537C185.512 53.4898 185.024 53.6079 184.47 53.6079C183.916 53.6079 183.418 53.4898 182.987 53.2537C182.555 53.0175 182.222 52.6839 181.98 52.263C181.739 51.8421 181.621 51.3544 181.621 50.8C181.621 50.2456 181.744 49.7734 181.98 49.3473C182.217 48.9213 182.555 48.5928 182.987 48.3566C183.418 48.1205 183.91 48.0025 184.47 48.0025C185.029 48.0025 185.512 48.1205 185.943 48.3566ZM183.5 49.101C183.218 49.2703 182.997 49.5013 182.838 49.7991C182.679 50.0968 182.602 50.4304 182.602 50.8103C182.602 51.1901 182.679 51.5392 182.838 51.8369C182.997 52.1398 183.218 52.3708 183.5 52.535C183.782 52.6993 184.106 52.7814 184.47 52.7814C184.834 52.7814 185.148 52.6993 185.43 52.535C185.712 52.3708 185.933 52.1398 186.092 51.8369C186.251 51.5341 186.328 51.1953 186.328 50.8103C186.328 50.4253 186.251 50.0968 186.092 49.7991C185.933 49.5013 185.717 49.2703 185.43 49.101C185.148 48.9316 184.829 48.8494 184.47 48.8494C184.111 48.8494 183.782 48.9316 183.5 49.101ZM186.261 47.2274H185.214L184.47 46.6422L183.715 47.2274H182.668L183.777 46.2213H185.137L186.256 47.2274H186.261ZM183.746 44.5427L185.106 45.6617L184.362 45.8927L182.904 45.1074L183.741 44.5427H183.746Z" fill="#F7941D"/>
<path d="M195.383 48.5724C195.753 48.9523 195.938 49.481 195.938 50.1483V53.5772H194.962V50.4101C194.962 49.9429 194.829 49.5785 194.567 49.3167C194.305 49.0549 193.946 48.9215 193.484 48.9215C192.986 48.9266 192.586 49.0857 192.273 49.3988C191.959 49.712 191.785 50.1123 191.744 50.6103V53.5772H190.769V48.0334H191.744V49.2089C192.113 48.4184 192.817 48.018 193.848 48.0026C194.5 48.0026 195.009 48.1926 195.378 48.5724H195.383Z" fill="#F7941D"/>
<path d="M204.679 48.0283V53.0074C204.679 53.5413 204.561 54.0033 204.33 54.4037C204.094 54.804 203.765 55.1069 203.339 55.3225C202.913 55.5381 202.415 55.6407 201.851 55.6407C201.034 55.6407 200.27 55.3841 199.566 54.8656L199.998 54.1521C200.27 54.378 200.552 54.5422 200.844 54.65C201.137 54.7578 201.46 54.8143 201.81 54.8143C202.384 54.8143 202.841 54.6552 203.18 54.3318C203.524 54.0084 203.693 53.5823 203.693 53.0434V52.2683C203.498 52.6019 203.231 52.8637 202.898 53.0485C202.564 53.2333 202.179 53.3257 201.743 53.3257C201.245 53.3257 200.809 53.2128 200.429 52.9869C200.049 52.761 199.751 52.4428 199.541 52.0373C199.33 51.6318 199.228 51.1698 199.228 50.6411C199.228 50.1123 199.33 49.6658 199.541 49.2705C199.751 48.8701 200.044 48.5621 200.429 48.3363C200.809 48.1104 201.25 48.0026 201.743 48.0026C202.184 48.0026 202.569 48.095 202.903 48.2747C203.237 48.4543 203.498 48.7161 203.693 49.0498V48.0334H204.679V48.0283ZM202.846 52.2939C203.113 52.1348 203.319 51.9089 203.468 51.6266C203.616 51.3443 203.693 51.026 203.693 50.6667C203.693 50.3074 203.616 49.9789 203.468 49.6966C203.319 49.4142 203.108 49.1935 202.846 49.0293C202.579 48.8701 202.277 48.788 201.933 48.788C201.589 48.788 201.286 48.8701 201.014 49.0293C200.747 49.1884 200.531 49.4091 200.382 49.6966C200.229 49.9789 200.152 50.3023 200.152 50.6667C200.157 51.2108 200.326 51.6574 200.655 52.0065C200.983 52.3555 201.409 52.5301 201.933 52.5301C202.277 52.5301 202.579 52.4479 202.846 52.2888V52.2939Z" fill="#F7941D"/>
<path d="M219.329 47.3404H218.564V53.5772H217.588V52.4376C217.373 52.8124 217.08 53.1101 216.721 53.3154C216.357 53.5259 215.951 53.6285 215.494 53.6285C214.986 53.6285 214.529 53.5105 214.124 53.2795C213.723 53.0433 213.41 52.72 213.184 52.3042C212.958 51.8884 212.851 51.4161 212.851 50.8823C212.851 50.3484 212.964 49.8813 213.184 49.4655C213.41 49.0549 213.718 48.7315 214.113 48.5005C214.509 48.2695 214.96 48.1566 215.468 48.1566C215.92 48.1566 216.336 48.2644 216.706 48.4748C217.075 48.6904 217.368 48.9779 217.588 49.3475V47.3353H215.335V46.7296H217.588V45.7953H218.564V46.7296H219.329V47.3353V47.3404ZM216.675 52.5506C216.962 52.3914 217.183 52.1656 217.347 51.8781C217.506 51.5907 217.588 51.2673 217.588 50.9028C217.588 50.5384 217.506 50.215 217.347 49.9275C217.188 49.6401 216.962 49.4142 216.675 49.25C216.387 49.0857 216.069 49.0036 215.71 49.0036C215.35 49.0036 215.022 49.0857 214.74 49.25C214.457 49.4142 214.237 49.6401 214.072 49.9275C213.913 50.215 213.831 50.5384 213.831 50.9028C213.831 51.2673 213.913 51.5907 214.072 51.8781C214.231 52.1656 214.457 52.3863 214.74 52.5506C215.022 52.7097 215.345 52.7918 215.71 52.7918C216.074 52.7918 216.387 52.7097 216.675 52.5506Z" fill="#F7941D"/>
<path d="M226.388 48.3566C226.819 48.5928 227.152 48.9264 227.394 49.3473C227.635 49.7683 227.753 50.2559 227.753 50.8C227.753 51.3441 227.635 51.8318 227.394 52.2578C227.152 52.6839 226.819 53.0175 226.388 53.2537C225.956 53.4898 225.469 53.6079 224.914 53.6079C224.36 53.6079 223.862 53.4898 223.431 53.2537C223 53.0175 222.666 52.6839 222.425 52.263C222.183 51.8421 222.065 51.3544 222.065 50.8C222.065 50.2456 222.189 49.7734 222.425 49.3473C222.661 48.9213 223 48.5928 223.431 48.3566C223.862 48.1205 224.355 48.0025 224.914 48.0025C225.474 48.0025 225.956 48.1205 226.388 48.3566ZM223.944 49.101C223.662 49.2703 223.441 49.5013 223.282 49.7991C223.123 50.0968 223.046 50.4304 223.046 50.8103C223.046 51.1901 223.123 51.5392 223.282 51.8369C223.441 52.1398 223.662 52.3708 223.944 52.535C224.226 52.6993 224.55 52.7814 224.914 52.7814C225.279 52.7814 225.592 52.6993 225.874 52.535C226.157 52.3708 226.377 52.1398 226.536 51.8369C226.696 51.5341 226.773 51.1953 226.773 50.8103C226.773 50.4253 226.696 50.0968 226.536 49.7991C226.377 49.5013 226.162 49.2703 225.874 49.101C225.592 48.9316 225.274 48.8494 224.914 48.8494C224.555 48.8494 224.226 48.9316 223.944 49.101ZM226.706 47.2274H225.659L224.914 46.6422L224.16 47.2274H223.113L224.221 46.2213H225.582L226.701 47.2274H226.706ZM224.191 44.5427L225.551 45.6617L224.807 45.8927L223.349 45.1074L224.185 44.5427H224.191Z" fill="#F7941D"/>
<path d="M235.822 48.5724C236.191 48.9523 236.376 49.481 236.376 50.1483V53.5772H235.401V50.4101C235.401 49.9429 235.267 49.5785 235.006 49.3167C234.744 49.0549 234.384 48.9215 233.922 48.9215C233.425 48.9266 233.024 49.0857 232.711 49.3988C232.398 49.712 232.223 50.1123 232.182 50.6103V53.5772H231.207V48.0334H232.182V49.2089C232.552 48.4184 233.255 48.018 234.287 48.0026C234.939 48.0026 235.447 48.1926 235.817 48.5724H235.822Z" fill="#F7941D"/>
<path d="M245.118 48.0283V53.0074C245.118 53.5413 245 54.0033 244.769 54.4037C244.533 54.804 244.205 55.1069 243.779 55.3225C243.353 55.5381 242.855 55.6407 242.29 55.6407C241.474 55.6407 240.709 55.3841 240.006 54.8656L240.437 54.1521C240.709 54.378 240.991 54.5422 241.284 54.65C241.577 54.7578 241.9 54.8143 242.249 54.8143C242.824 54.8143 243.281 54.6552 243.62 54.3318C243.963 54.0084 244.133 53.5823 244.133 53.0434V52.2683C243.938 52.6019 243.671 52.8637 243.337 53.0485C243.004 53.2333 242.619 53.3257 242.182 53.3257C241.684 53.3257 241.248 53.2128 240.868 52.9869C240.488 52.761 240.191 52.4428 239.98 52.0373C239.77 51.6318 239.667 51.1698 239.667 50.6411C239.667 50.1123 239.77 49.6658 239.98 49.2705C240.191 48.8701 240.483 48.5621 240.868 48.3363C241.248 48.1104 241.689 48.0026 242.182 48.0026C242.624 48.0026 243.009 48.095 243.342 48.2747C243.676 48.4543 243.938 48.7161 244.133 49.0498V48.0334H245.118V48.0283ZM243.286 52.2939C243.553 52.1348 243.758 51.9089 243.907 51.6266C244.056 51.3443 244.133 51.026 244.133 50.6667C244.133 50.3074 244.056 49.9789 243.907 49.6966C243.758 49.4142 243.548 49.1935 243.286 49.0293C243.019 48.8701 242.716 48.788 242.372 48.788C242.028 48.788 241.725 48.8701 241.453 49.0293C241.186 49.1884 240.971 49.4091 240.822 49.6966C240.668 49.9789 240.591 50.3023 240.591 50.6667C240.596 51.2108 240.765 51.6574 241.094 52.0065C241.423 52.3555 241.849 52.5301 242.372 52.5301C242.716 52.5301 243.019 52.4479 243.286 52.2888V52.2939Z" fill="#F7941D"/>
<path d="M252.915 48.0283H253.952L255.62 52.6071L257.278 48.0283H258.264L256.103 53.5721H255.086L252.915 48.0283Z" fill="#F7941D"/>
<path d="M264.87 48.3566C265.301 48.5928 265.635 48.9264 265.876 49.3473C266.117 49.7683 266.235 50.2559 266.235 50.8C266.235 51.3441 266.117 51.8318 265.876 52.2578C265.635 52.6839 265.301 53.0175 264.87 53.2537C264.439 53.4898 263.951 53.6079 263.397 53.6079C262.842 53.6079 262.344 53.4898 261.913 53.2537C261.482 53.0175 261.148 52.6839 260.907 52.263C260.666 51.8421 260.548 51.3544 260.548 50.8C260.548 50.2456 260.671 49.7734 260.907 49.3473C261.143 48.9213 261.482 48.5928 261.913 48.3566C262.344 48.1205 262.837 48.0025 263.397 48.0025C263.956 48.0025 264.439 48.1205 264.87 48.3566ZM262.427 49.101C262.144 49.2703 261.924 49.5013 261.764 49.7991C261.605 50.0968 261.528 50.4304 261.528 50.8103C261.528 51.1901 261.605 51.5392 261.764 51.8369C261.924 52.1398 262.144 52.3708 262.427 52.535C262.709 52.6993 263.032 52.7814 263.397 52.7814C263.761 52.7814 264.074 52.6993 264.357 52.535C264.639 52.3708 264.86 52.1398 265.019 51.8369C265.178 51.5341 265.255 51.1953 265.255 50.8103C265.255 50.4253 265.178 50.0968 265.019 49.7991C264.86 49.5013 264.644 49.2703 264.357 49.101C264.074 48.9316 263.756 48.8494 263.397 48.8494C263.037 48.8494 262.709 48.9316 262.427 49.101ZM265.188 47.2274H264.141L263.397 46.6422L262.642 47.2274H261.595L262.704 46.2213H264.064L265.183 47.2274H265.188ZM264.023 44.5427L264.86 45.1074L263.402 45.8927L262.658 45.6617L264.018 44.5427H264.023Z" fill="#F7941D"/>
<path d="M274.305 48.5724C274.675 48.9523 274.86 49.481 274.86 50.1483V53.5772H273.884V50.4101C273.884 49.9429 273.751 49.5785 273.489 49.3167C273.227 49.0549 272.868 48.9215 272.406 48.9215C271.908 48.9266 271.508 49.0857 271.194 49.3988C270.881 49.712 270.707 50.1123 270.666 50.6103V53.5772H269.69V48.0334H270.666V49.2089C271.035 48.4184 271.739 48.018 272.77 48.0026C273.422 48.0026 273.93 48.1926 274.3 48.5724H274.305Z" fill="#F7941D"/>
<path d="M285.844 48.8701C285.48 48.8701 285.156 48.9523 284.874 49.1114C284.592 49.2705 284.371 49.5015 284.207 49.7941C284.047 50.0867 283.965 50.4255 283.965 50.8105C283.965 51.1954 284.042 51.5342 284.201 51.8268C284.361 52.1194 284.576 52.3504 284.853 52.5147C285.131 52.6789 285.444 52.761 285.803 52.761C286.162 52.761 286.481 52.6994 286.768 52.5814C287.055 52.4633 287.292 52.2939 287.481 52.0681L288.036 52.6327C287.784 52.9458 287.466 53.1871 287.076 53.3565C286.686 53.5259 286.25 53.608 285.762 53.608C285.223 53.608 284.746 53.4899 284.325 53.2538C283.904 53.0177 283.58 52.684 283.344 52.2631C283.108 51.8422 282.995 51.3546 282.995 50.8105C282.995 50.2663 283.113 49.7787 283.344 49.3526C283.58 48.9266 283.904 48.5929 284.325 48.3568C284.746 48.1207 285.223 48.0026 285.762 48.0026C286.229 48.0026 286.65 48.0745 287.025 48.2182C287.399 48.3619 287.712 48.5673 287.964 48.8445L287.43 49.5169C286.989 49.0908 286.465 48.8753 285.849 48.8753L285.844 48.8701Z" fill="#F7941D"/>
<path d="M296.429 48.0282V53.572H295.443V52.3966C295.079 53.1871 294.396 53.5874 293.39 53.6028C292.749 53.6028 292.245 53.4129 291.881 53.0331C291.517 52.6532 291.337 52.1245 291.337 51.4572V48.0282H292.322V51.1954C292.322 51.6625 292.451 52.027 292.702 52.2888C292.959 52.5505 293.308 52.684 293.755 52.684C294.273 52.6789 294.684 52.4941 294.987 52.1348C295.289 51.7754 295.443 51.3135 295.443 50.7591V48.0334H296.429V48.0282ZM294.648 45.6259C294.838 45.7748 294.93 45.9801 294.93 46.2419C294.93 46.437 294.858 46.6526 294.72 46.8784C294.581 47.1094 294.396 47.3199 294.176 47.5098L293.631 47.2583C293.77 47.1248 293.883 46.9811 293.965 46.822C294.047 46.6628 294.093 46.5242 294.093 46.4062C294.093 46.3138 294.057 46.2368 293.991 46.1752C293.919 46.1136 293.837 46.0828 293.739 46.0828C293.606 46.0828 293.472 46.129 293.329 46.2214L293.005 45.6978C293.298 45.5027 293.611 45.4052 293.939 45.4052C294.227 45.4052 294.463 45.4771 294.653 45.6259H294.648Z" fill="#F7941D"/>
<path d="M303.81 53.5772V52.8021C303.4 53.3462 302.753 53.6183 301.87 53.6183C301.485 53.6183 301.146 53.5464 300.859 53.3976C300.571 53.2487 300.345 53.0485 300.186 52.7918C300.027 52.5352 299.95 52.2426 299.95 51.9244C299.95 51.4264 300.135 51.0363 300.499 50.7437C300.864 50.4563 301.377 50.3074 302.034 50.2971H303.795V50.0354C303.795 49.6452 303.672 49.3424 303.436 49.1268C303.194 48.9112 302.845 48.8085 302.383 48.8085C301.824 48.8085 301.254 49.0087 300.674 49.404L300.263 48.7315C300.664 48.4749 301.028 48.285 301.367 48.172C301.706 48.0591 302.111 47.9975 302.578 47.9975C303.271 47.9975 303.805 48.1669 304.18 48.5057C304.555 48.8445 304.75 49.3167 304.755 49.9276L304.765 53.5772H303.8H303.81ZM303.23 52.4839C303.549 52.2631 303.738 51.9705 303.8 51.6112V51.0568H302.178C301.737 51.0568 301.413 51.1236 301.198 51.257C300.982 51.3905 300.879 51.601 300.879 51.8884C300.879 52.1759 300.987 52.4017 301.203 52.5711C301.418 52.7405 301.711 52.8227 302.07 52.8227C302.522 52.8227 302.912 52.7149 303.23 52.4941V52.4839Z" fill="#F7941D"/>
<path d="M317.916 48.3567C318.322 48.5928 318.635 48.9264 318.861 49.3525C319.087 49.7785 319.194 50.2662 319.194 50.8206C319.194 51.3749 319.087 51.8472 318.866 52.2732C318.645 52.6942 318.337 53.0227 317.932 53.2588C317.531 53.4949 317.069 53.6079 316.556 53.6079C316.089 53.6079 315.678 53.5103 315.319 53.3153C314.965 53.1202 314.682 52.8379 314.482 52.4786V53.5771H313.507V45.8004H314.482V49.1318C314.682 48.7673 314.965 48.4901 315.314 48.2951C315.668 48.1 316.073 48.0025 316.535 48.0025C317.054 48.0025 317.516 48.1205 317.916 48.3567ZM317.305 52.5042C317.588 52.3348 317.808 52.1038 317.968 51.801C318.127 51.4981 318.204 51.1594 318.204 50.7846C318.204 50.4099 318.122 50.0814 317.962 49.7785C317.803 49.4757 317.583 49.2447 317.3 49.0753C317.018 48.9059 316.705 48.8238 316.345 48.8238C315.986 48.8238 315.668 48.9059 315.386 49.0753C315.103 49.2447 314.883 49.4757 314.718 49.7785C314.559 50.0814 314.477 50.415 314.477 50.7846C314.477 51.1542 314.559 51.5084 314.718 51.8061C314.877 52.1038 315.098 52.3348 315.386 52.5042C315.668 52.6736 315.986 52.7558 316.345 52.7558C316.705 52.7558 317.023 52.6736 317.305 52.5042Z" fill="#F7941D"/>
<path d="M326.037 53.5772V52.8021C325.626 53.3462 324.979 53.6183 324.097 53.6183C323.712 53.6183 323.373 53.5464 323.085 53.3976C322.798 53.2487 322.572 53.0485 322.413 52.7918C322.254 52.5352 322.177 52.2426 322.177 51.9244C322.177 51.4264 322.362 51.0363 322.726 50.7437C323.09 50.4563 323.604 50.3074 324.261 50.2971H326.021V50.0354C326.021 49.6452 325.898 49.3424 325.662 49.1268C325.421 48.9112 325.072 48.8085 324.61 48.8085C324.05 48.8085 323.481 49.0087 322.901 49.404L322.49 48.7315C322.89 48.4749 323.255 48.285 323.594 48.172C323.932 48.0591 324.338 47.9975 324.805 47.9975C325.498 47.9975 326.032 48.1669 326.406 48.5057C326.781 48.8445 326.976 49.3167 326.981 49.9276L326.992 53.5772H326.027H326.037ZM325.457 52.4839C325.775 52.2631 325.965 51.9705 326.027 51.6112V51.0568H324.405C323.963 51.0568 323.64 51.1236 323.424 51.257C323.209 51.3905 323.106 51.601 323.106 51.8884C323.106 52.1759 323.214 52.4017 323.429 52.5711C323.645 52.7405 323.937 52.8227 324.297 52.8227C324.748 52.8227 325.139 52.7149 325.457 52.4941V52.4839ZM325.123 54.532C325.236 54.65 325.298 54.7989 325.298 54.9837C325.298 55.1685 325.241 55.3174 325.123 55.4354C325.005 55.5535 324.861 55.6151 324.687 55.6151C324.512 55.6151 324.369 55.5535 324.251 55.4354C324.132 55.3174 324.076 55.1685 324.076 54.9837C324.076 54.7989 324.132 54.65 324.251 54.532C324.363 54.4139 324.512 54.3523 324.687 54.3523C324.861 54.3523 325.005 54.4139 325.123 54.532Z" fill="#F7941D"/>
<path d="M335.446 48.5724C335.815 48.9523 336 49.481 336 50.1483V53.5772H335.025V50.4101C335.025 49.9429 334.891 49.5785 334.63 49.3167C334.368 49.0549 334.008 48.9215 333.546 48.9215C333.049 48.9266 332.648 49.0857 332.335 49.3988C332.022 49.712 331.847 50.1123 331.806 50.6103V53.5772H330.831V48.0334H331.806V49.2089C332.176 48.4184 332.879 48.018 333.911 48.0026C334.563 48.0026 335.071 48.1926 335.441 48.5724H335.446Z" fill="#F7941D"/>
<path d="M233.41 27.429H236.141L242.198 41.2987H240.155C239.944 41.2987 239.739 41.273 239.539 41.2166C239.344 41.1601 239.159 41.0831 238.99 40.9753C238.82 40.8675 238.671 40.7392 238.533 40.5852C238.399 40.4363 238.286 40.2618 238.204 40.0668L237.527 38.5268H232.009L231.352 40.0668C231.275 40.2413 231.167 40.4004 231.028 40.5493C230.89 40.6981 230.736 40.8265 230.561 40.9394C230.386 41.0523 230.202 41.1396 230.001 41.2012C229.801 41.2628 229.601 41.2936 229.401 41.2936H227.348L233.41 27.4238V27.429ZM233.282 35.6574H236.243L235.032 32.752C234.976 32.6186 234.929 32.4902 234.899 32.3722C234.868 32.2541 234.842 32.1515 234.822 32.0642C234.796 31.9615 234.78 31.864 234.775 31.7716C234.76 31.864 234.745 31.9615 234.719 32.0693C234.698 32.1617 234.673 32.2644 234.637 32.3773C234.601 32.4902 234.56 32.6186 234.503 32.7469L233.282 35.6523V35.6574Z" fill="#BE1E2D"/>
<path d="M254.64 33.5168V39.5482C254.271 39.9281 253.875 40.2412 253.455 40.4825C253.034 40.7237 252.592 40.9136 252.135 41.0522C251.678 41.1908 251.206 41.2884 250.729 41.3448C250.246 41.4013 249.764 41.427 249.271 41.427C248.619 41.427 247.988 41.3448 247.382 41.1754C246.776 41.006 246.212 40.7699 245.683 40.4619C245.154 40.1539 244.677 39.7895 244.241 39.3583C243.804 38.9271 243.435 38.4549 243.127 37.9313C242.819 37.4077 242.583 36.8482 242.408 36.2425C242.239 35.6368 242.151 35.0105 242.151 34.3586C242.151 33.7067 242.239 33.0805 242.408 32.4748C242.577 31.8742 242.819 31.3095 243.127 30.786C243.435 30.2624 243.804 29.785 244.241 29.3589C244.677 28.9278 245.154 28.5633 245.683 28.2553C246.212 27.9473 246.776 27.7112 247.382 27.5418C247.988 27.3724 248.619 27.2903 249.271 27.2903C249.789 27.2903 250.303 27.3519 250.811 27.4853C251.319 27.6137 251.817 27.7985 252.294 28.0346C252.777 28.2707 253.239 28.5582 253.691 28.9021C254.137 29.246 254.558 29.6259 254.953 30.0519L254.153 30.8835C253.752 31.3044 253.244 31.5149 252.633 31.5149C252.202 31.5149 251.812 31.3968 251.463 31.1555C251.14 30.9451 250.796 30.7706 250.431 30.6474C250.067 30.5242 249.682 30.4574 249.276 30.4574C248.742 30.4574 248.234 30.5601 247.757 30.7654C247.279 30.9707 246.864 31.2531 246.504 31.6021C246.145 31.9512 245.863 32.367 245.647 32.8392C245.437 33.3115 245.329 33.8196 245.329 34.3535C245.329 34.8873 245.442 35.4366 245.662 35.914C245.883 36.3913 246.181 36.802 246.556 37.1459C246.925 37.4898 247.356 37.7619 247.844 37.957C248.332 38.152 248.845 38.2495 249.379 38.2495C249.748 38.2495 250.113 38.2136 250.482 38.1417C250.852 38.0699 251.181 37.9621 251.478 37.8235V36.4889C251.17 36.4837 250.883 36.4324 250.626 36.3349C250.37 36.2373 250.149 36.109 249.964 35.9448C249.779 35.7805 249.635 35.5854 249.533 35.3647C249.43 35.144 249.379 34.8976 249.379 34.6255V33.5117H254.656L254.64 33.5168Z" fill="#BE1E2D"/>
<path d="M261.011 41.2986H257.844V27.4288H263.285C263.808 27.4288 264.291 27.4956 264.732 27.6342C265.174 27.7676 265.574 27.9524 265.934 28.1834C266.293 28.4144 266.606 28.6813 266.883 28.9944C267.155 29.3076 267.386 29.6412 267.571 30.0005C267.756 30.3599 267.894 30.7294 267.987 31.1093C268.079 31.4891 268.125 31.869 268.125 32.2437C268.125 32.6184 268.084 32.9778 268.002 33.3422C267.92 33.7067 267.792 34.066 267.617 34.4099C267.443 34.759 267.217 35.0926 266.94 35.4109C266.663 35.7291 266.329 36.0268 265.934 36.304L269.629 41.2986H266.929C266.873 41.2986 266.77 41.2883 266.632 41.2678C266.493 41.2472 266.334 41.2062 266.165 41.1343C265.995 41.0625 265.805 40.9547 265.61 40.8161C265.415 40.6775 265.23 40.4773 265.061 40.2258L262.736 37.0791H261.001V41.2986H261.011ZM263.449 33.8915C263.644 33.8915 263.829 33.8453 264.009 33.7477C264.188 33.6502 264.347 33.527 264.486 33.3679C264.625 33.2139 264.738 33.0394 264.82 32.8392C264.902 32.6441 264.948 32.4439 264.948 32.2437C264.948 32.0435 264.907 31.8433 264.82 31.6483C264.738 31.4532 264.625 31.2736 264.486 31.1196C264.347 30.9656 264.188 30.8372 264.009 30.7397C263.829 30.6422 263.639 30.596 263.449 30.596H261.011V33.8863H263.449V33.8915Z" fill="#BE1E2D"/>
<path d="M274.849 41.2986H271.672V27.4288H274.849V41.2986Z" fill="#BE1E2D"/>
<path d="M281.046 41.2986H278.546V27.4288H284.685C285.27 27.4288 285.825 27.5366 286.343 27.7574C286.862 27.9781 287.318 28.2758 287.703 28.6557C288.088 29.0355 288.396 29.4821 288.617 29.9954C288.838 30.5087 288.951 31.0528 288.951 31.638C288.951 31.8125 288.92 32.023 288.858 32.2694C288.797 32.5158 288.71 32.7519 288.602 32.9829C288.494 33.2139 288.36 33.4141 288.201 33.5937C288.042 33.7734 287.863 33.8812 287.662 33.9171C287.934 33.9479 288.186 34.066 288.412 34.2713C288.643 34.4766 288.838 34.7282 289.007 35.0259C289.177 35.3236 289.305 35.6521 289.402 36.0012C289.5 36.3502 289.546 36.6839 289.546 36.997C289.546 37.5976 289.433 38.1571 289.202 38.6807C288.971 39.2043 288.663 39.6611 288.268 40.0461C287.873 40.4311 287.411 40.7391 286.882 40.9598C286.353 41.1805 285.789 41.2934 285.188 41.2934L281.035 41.3037L281.046 41.2986ZM281.713 30.5908V32.68H284.803C284.937 32.68 285.07 32.6544 285.188 32.5979C285.311 32.5414 285.419 32.4696 285.506 32.3772C285.599 32.2848 285.666 32.1719 285.717 32.0487C285.768 31.9255 285.794 31.7869 285.794 31.6483C285.794 31.5097 285.768 31.3711 285.717 31.2428C285.666 31.1144 285.594 31.0015 285.506 30.904C285.419 30.8064 285.311 30.7294 285.188 30.6781C285.065 30.6268 284.937 30.596 284.803 30.596H281.713V30.5908ZM285.317 38.1314C285.465 38.1314 285.604 38.1006 285.732 38.039C285.861 37.9774 285.974 37.8953 286.071 37.7875C286.169 37.6797 286.246 37.5565 286.302 37.4179C286.359 37.2793 286.389 37.1305 286.389 36.9765C286.389 36.8225 286.364 36.6736 286.307 36.5402C286.251 36.4067 286.179 36.2886 286.081 36.186C285.984 36.0833 285.871 36.0063 285.743 35.9447C285.614 35.8831 285.476 35.8523 285.327 35.8523H281.718V38.1263H285.322L285.317 38.1314Z" fill="#BE1E2D"/>
<path d="M296.322 27.429H299.053L305.11 41.2987H303.067C302.856 41.2987 302.651 41.273 302.451 41.2166C302.256 41.1601 302.071 41.0831 301.902 40.9753C301.732 40.8675 301.583 40.7392 301.445 40.5852C301.311 40.4363 301.198 40.2618 301.116 40.0668L300.439 38.5268H294.921L294.264 40.0668C294.187 40.2413 294.079 40.4004 293.94 40.5493C293.802 40.6981 293.648 40.8265 293.473 40.9394C293.299 41.0523 293.114 41.1396 292.914 41.2012C292.713 41.2628 292.513 41.2936 292.313 41.2936H290.26L296.322 27.4238V27.429ZM296.194 35.6574H299.155L297.944 32.752C297.888 32.6186 297.841 32.4902 297.811 32.3722C297.78 32.2541 297.754 32.1515 297.734 32.0642C297.708 31.9615 297.693 31.864 297.687 31.7716C297.672 31.864 297.657 31.9615 297.631 32.0693C297.61 32.1617 297.585 32.2644 297.549 32.3773C297.513 32.4902 297.472 32.6186 297.415 32.7469L296.194 35.6523V35.6574Z" fill="#BE1E2D"/>
<path d="M319.405 41.2987H316.259L309.627 31.7049V41.2987H306.47V27.429H309.586C309.894 27.429 310.171 27.4752 310.407 27.5624C310.643 27.6497 310.828 27.7934 310.956 27.9782L315.807 35.0825C315.879 35.1851 315.94 35.2981 315.992 35.4213C316.043 35.5445 316.089 35.6574 316.125 35.7652C316.161 35.873 316.192 35.9654 316.212 36.0424C316.233 36.1194 316.243 36.1656 316.243 36.1861V27.4238H319.4V41.2936L319.405 41.2987Z" fill="#BE1E2D"/>
<path d="M326.166 41.2986H322.999V27.4288H326.166V41.2986ZM327.501 33.5629L330.842 28.5017C330.935 28.3682 331.038 28.2347 331.161 28.1064C331.284 27.9781 331.417 27.8651 331.556 27.7625C331.695 27.6598 331.849 27.5828 332.008 27.5212C332.167 27.4596 332.326 27.4288 332.495 27.4288H335.339L331.176 33.7477C331.084 33.8761 330.981 33.9787 330.863 34.0455C330.745 34.1173 330.673 34.1532 330.647 34.1635C330.653 34.1635 330.678 34.1738 330.719 34.1943C330.76 34.2148 330.807 34.2405 330.858 34.2764C330.909 34.3124 330.966 34.3586 331.022 34.4099C331.079 34.4664 331.13 34.5228 331.176 34.5896L335.632 41.2986H332.788C332.408 41.2986 332.09 41.2011 331.828 41.0009C331.571 40.8058 331.33 40.5389 331.109 40.2052L327.501 34.7744C327.429 34.6666 327.352 34.569 327.27 34.492C327.188 34.415 327.106 34.3534 327.034 34.3072C326.957 34.261 326.895 34.2302 326.844 34.2046C326.792 34.184 326.762 34.1686 326.756 34.1635C326.762 34.1635 326.792 34.1532 326.844 34.1327C326.895 34.1122 326.957 34.0814 327.034 34.0352C327.106 33.989 327.188 33.9274 327.27 33.8504C327.352 33.7734 327.429 33.6759 327.501 33.5578V33.5629Z" fill="#BE1E2D"/>
<path d="M73.2247 34.374C73.2247 34.9078 73.3325 35.4109 73.543 35.8831C73.7535 36.3554 74.0409 36.7712 74.4054 37.1253C74.7647 37.4795 75.1856 37.7567 75.663 37.9621C76.1404 38.1622 76.6434 38.2649 77.1773 38.2649C77.5879 38.2649 77.978 38.2033 78.3425 38.075C78.7069 37.9518 79.0457 37.7824 79.364 37.5668C79.7028 37.3358 80.0929 37.2177 80.5241 37.2177C80.8577 37.2177 81.1452 37.2691 81.3813 37.3769C81.6174 37.4847 81.8382 37.6387 82.0383 37.8337L82.8596 38.655C82.4593 39.0811 82.0383 39.4609 81.5918 39.8049C81.1452 40.1436 80.6781 40.4362 80.2007 40.6724C79.7233 40.9085 79.2254 41.0933 78.7172 41.2216C78.209 41.3499 77.6957 41.4167 77.1824 41.4167C76.5305 41.4167 75.9042 41.3345 75.2985 41.1651C74.6928 40.9957 74.1282 40.7596 73.5995 40.4568C73.0707 40.1539 72.5934 39.7843 72.1622 39.3583C71.731 38.9322 71.3614 38.4548 71.0534 37.9313C70.7454 37.4077 70.5042 36.8482 70.3348 36.2476C70.1654 35.647 70.0781 35.0208 70.0781 34.3689C70.0781 33.7169 70.1654 33.0907 70.3348 32.4901C70.5042 31.8895 70.7454 31.3249 71.0534 30.8065C71.3614 30.2829 71.731 29.8106 72.1622 29.3794C72.5934 28.9534 73.0707 28.5838 73.5995 28.2758C74.1282 27.973 74.6928 27.7317 75.2985 27.5674C75.9042 27.398 76.5305 27.3159 77.1824 27.3159C77.6957 27.3159 78.209 27.3826 78.7172 27.511C79.2254 27.6393 79.7182 27.8241 80.2007 28.0602C80.6781 28.3015 81.1452 28.5889 81.5918 28.9277C82.0383 29.2665 82.4644 29.6515 82.8596 30.0775L82.0383 30.8988C81.8433 31.0939 81.6226 31.2428 81.371 31.3557C81.1195 31.4686 80.8372 31.5251 80.5189 31.5251C80.0929 31.5251 79.7079 31.407 79.3588 31.1658C79.0355 30.945 78.6967 30.7757 78.3322 30.6525C77.9678 30.5293 77.5828 30.4677 77.1773 30.4677C76.6434 30.4677 76.1352 30.5703 75.663 30.7757C75.1856 30.981 74.7698 31.2582 74.4054 31.6124C74.046 31.9614 73.7586 32.3772 73.543 32.8494C73.3325 33.3217 73.2247 33.8247 73.2247 34.3586V34.374Z" fill="#BE1E2D"/>
<path d="M97.3964 41.2988H94.2395V35.8217H88.09V41.2988H84.9434V27.4598H88.09V32.8702H94.2395V27.4598H97.3964V41.2988Z" fill="#BE1E2D"/>
<path d="M103.346 35.7293C103.346 36.0784 103.418 36.4069 103.556 36.7149C103.695 37.0229 103.89 37.2949 104.126 37.5259C104.362 37.7569 104.639 37.9417 104.953 38.0752C105.266 38.2086 105.594 38.2754 105.943 38.2754C106.292 38.2754 106.621 38.2086 106.934 38.0752C107.247 37.9417 107.524 37.7569 107.765 37.5259C108.007 37.2949 108.197 37.0229 108.34 36.7149C108.484 36.4069 108.551 36.0784 108.551 35.7293V27.4598H111.708V35.7293C111.708 36.5198 111.554 37.2641 111.256 37.9571C110.953 38.6501 110.543 39.2507 110.019 39.7691C109.495 40.2876 108.885 40.6931 108.186 40.9908C107.488 41.2885 106.739 41.4374 105.943 41.4374C105.415 41.4374 104.906 41.3707 104.419 41.2372C103.931 41.1037 103.474 40.9087 103.048 40.6623C102.622 40.4159 102.232 40.1182 101.878 39.7691C101.524 39.4201 101.221 39.0351 100.969 38.6142C100.718 38.1932 100.523 37.7364 100.384 37.2539C100.245 36.7714 100.179 36.2632 100.179 35.7345V27.465H103.346V35.7345V35.7293Z" fill="#BE1E2D"/>
<path d="M127.308 41.2988H124.171L117.555 31.7306V41.2988H114.408V27.4598H117.519C117.827 27.4598 118.104 27.506 118.34 27.5933C118.576 27.6857 118.761 27.8243 118.889 28.0091L123.73 35.098C123.802 35.2006 123.863 35.3135 123.915 35.4367C123.966 35.5599 124.012 35.6729 124.048 35.7807C124.084 35.8885 124.115 35.9809 124.136 36.0578C124.156 36.1348 124.166 36.181 124.166 36.2016V27.4598H127.313V41.2988H127.308Z" fill="#BE1E2D"/>
<path d="M141.968 33.5375V39.5535C141.603 39.9334 141.208 40.2465 140.787 40.4826C140.366 40.7239 139.925 40.9138 139.468 41.0524C139.011 41.191 138.544 41.2885 138.061 41.3398C137.579 41.3912 137.096 41.422 136.609 41.422C135.957 41.422 135.33 41.3398 134.725 41.1704C134.119 41.001 133.554 40.7649 133.031 40.4621C132.507 40.1592 132.025 39.7896 131.594 39.3636C131.162 38.9375 130.788 38.4601 130.485 37.9366C130.182 37.413 129.941 36.8535 129.771 36.2529C129.602 35.6523 129.515 35.0261 129.515 34.3742C129.515 33.7223 129.602 33.096 129.771 32.4954C129.941 31.8949 130.182 31.3302 130.485 30.8118C130.793 30.2882 131.162 29.8159 131.594 29.3847C132.025 28.9536 132.507 28.5891 133.031 28.2811C133.554 27.9783 134.119 27.737 134.725 27.5728C135.33 27.4085 135.957 27.3212 136.609 27.3212C137.122 27.3212 137.635 27.388 138.143 27.5163C138.652 27.6446 139.144 27.8243 139.627 28.0604C140.104 28.2965 140.571 28.584 141.018 28.9228C141.465 29.2616 141.886 29.6465 142.276 30.0726L141.475 30.9042C141.074 31.3251 140.571 31.5304 139.961 31.5304C139.529 31.5304 139.139 31.4123 138.79 31.1711C138.467 30.9606 138.123 30.7912 137.764 30.6629C137.404 30.5346 137.014 30.473 136.609 30.473C136.075 30.473 135.567 30.5756 135.094 30.781C134.622 30.9863 134.201 31.2635 133.842 31.6177C133.483 31.9719 133.2 32.3825 132.985 32.8548C132.774 33.327 132.666 33.8301 132.666 34.3639C132.666 34.8977 132.779 35.4419 133 35.9192C133.221 36.3966 133.518 36.8073 133.888 37.1512C134.258 37.4951 134.689 37.7672 135.171 37.9622C135.659 38.1573 136.167 38.2548 136.701 38.2548C137.065 38.2548 137.435 38.2189 137.8 38.147C138.164 38.0752 138.498 37.9725 138.795 37.8288V36.4941C138.487 36.489 138.205 36.4377 137.943 36.3402C137.687 36.2426 137.466 36.1143 137.281 35.95C137.096 35.7858 136.953 35.5907 136.85 35.37C136.747 35.1493 136.696 34.9029 136.696 34.6308V33.5221H141.957L141.968 33.5375Z" fill="#BE1E2D"/>
<path d="M153.465 41.2988H150.309V27.4598H153.465V41.2988ZM154.8 33.5837L158.131 28.5327C158.224 28.3992 158.327 28.2657 158.45 28.1374C158.573 28.0091 158.706 27.8962 158.845 27.7935C158.989 27.696 159.138 27.6138 159.292 27.5522C159.451 27.4906 159.61 27.4598 159.779 27.4598H162.618L158.465 33.7685C158.373 33.8968 158.27 33.9995 158.152 34.0662C158.034 34.1329 157.962 34.174 157.936 34.1843C157.942 34.1843 157.967 34.1945 158.008 34.2151C158.049 34.2356 158.096 34.2613 158.147 34.2972C158.198 34.3331 158.255 34.3793 158.311 34.4306C158.368 34.4871 158.419 34.5436 158.465 34.6103L162.905 41.3039H160.067C159.687 41.3039 159.369 41.2064 159.112 41.0113C158.855 40.8163 158.614 40.5493 158.398 40.2157L154.795 34.8002C154.723 34.6924 154.646 34.6 154.564 34.5179C154.482 34.4358 154.4 34.3793 154.328 34.3331C154.251 34.2869 154.189 34.2561 154.138 34.2305C154.087 34.2099 154.056 34.1945 154.051 34.1894C154.056 34.1894 154.087 34.1791 154.138 34.1586C154.189 34.1381 154.251 34.1073 154.328 34.0611C154.4 34.0149 154.482 33.9533 154.564 33.8763C154.646 33.7993 154.723 33.7017 154.795 33.5888L154.8 33.5837Z" fill="#BE1E2D"/>
<path d="M176.822 41.2988H173.665V35.8217H167.516V41.2988H164.369V27.4598H167.516V32.8702H173.665V27.4598H176.822V41.2988Z" fill="#BE1E2D"/>
<path d="M178.993 34.3742C178.993 33.7223 179.08 33.096 179.25 32.4954C179.419 31.8949 179.66 31.3302 179.968 30.8118C180.276 30.2882 180.646 29.8159 181.077 29.3847C181.508 28.9587 181.986 28.5891 182.514 28.2811C183.043 27.9783 183.608 27.737 184.214 27.5728C184.819 27.4034 185.446 27.3212 186.097 27.3212C186.749 27.3212 187.376 27.4034 187.981 27.5728C188.587 27.7421 189.152 27.9783 189.68 28.2811C190.209 28.5891 190.686 28.9536 191.118 29.3847C191.549 29.8108 191.918 30.2882 192.226 30.8118C192.534 31.3353 192.776 31.8949 192.945 32.4954C193.114 33.096 193.202 33.7223 193.202 34.3742C193.202 35.0261 193.114 35.6523 192.945 36.2529C192.776 36.8535 192.534 37.4181 192.226 37.9366C191.918 38.4601 191.549 38.9324 191.118 39.3636C190.686 39.7896 190.204 40.1592 189.68 40.4621C189.152 40.7701 188.587 41.0062 187.981 41.1704C187.376 41.3398 186.749 41.422 186.097 41.422C185.446 41.422 184.809 41.3398 184.208 41.1704C183.608 41.001 183.043 40.7649 182.514 40.4621C181.986 40.1541 181.508 39.7896 181.077 39.3636C180.646 38.9375 180.276 38.4601 179.968 37.9366C179.66 37.413 179.419 36.8535 179.25 36.2529C179.08 35.6523 178.993 35.0261 178.993 34.3742ZM182.15 34.3742C182.15 34.908 182.258 35.4111 182.468 35.8833C182.679 36.3556 182.966 36.7713 183.326 37.1255C183.685 37.4797 184.106 37.7569 184.583 37.9622C185.061 38.1624 185.564 38.2651 186.097 38.2651C186.631 38.2651 187.129 38.1624 187.607 37.9622C188.084 37.762 188.505 37.4797 188.869 37.1255C189.229 36.7713 189.516 36.3556 189.727 35.8833C189.937 35.4111 190.045 34.908 190.045 34.3742C190.045 33.8403 189.937 33.3373 189.727 32.865C189.516 32.3928 189.229 31.9821 188.869 31.6279C188.51 31.2789 188.089 30.9966 187.607 30.7912C187.124 30.5859 186.621 30.4832 186.097 30.4832C185.574 30.4832 185.055 30.5859 184.583 30.7912C184.111 30.9966 183.69 31.2737 183.326 31.6279C182.966 31.977 182.679 32.3928 182.468 32.865C182.258 33.3373 182.15 33.8403 182.15 34.3742Z" fill="#BE1E2D"/>
<path d="M198.802 27.4598H201.528L207.575 41.2988H205.537C205.326 41.2988 205.121 41.2731 204.926 41.2167C204.731 41.1602 204.546 41.0832 204.382 40.9754C204.213 40.8676 204.064 40.7393 203.93 40.5904C203.797 40.4416 203.684 40.267 203.602 40.072L202.924 38.5372H197.421L196.764 40.072C196.687 40.2465 196.58 40.4056 196.441 40.5545C196.302 40.7033 196.148 40.8317 195.974 40.9446C195.799 41.0575 195.615 41.1448 195.414 41.2064C195.214 41.268 195.014 41.2988 194.814 41.2988H192.766L198.812 27.4598H198.802ZM198.679 35.6677H201.636L200.429 32.7726C200.373 32.6392 200.327 32.5109 200.296 32.3979C200.265 32.2799 200.239 32.1772 200.219 32.0899C200.193 31.9873 200.178 31.8897 200.173 31.8025C200.162 31.8949 200.142 31.9924 200.116 32.1002C200.096 32.1926 200.07 32.2953 200.034 32.4082C199.998 32.5263 199.957 32.6443 199.906 32.7726L198.689 35.6677H198.679Z" fill="#BE1E2D"/>
<path d="M221.429 41.2988H218.293L211.676 31.7306V41.2988H208.529V27.4598H211.64C211.948 27.4598 212.225 27.506 212.461 27.5933C212.697 27.6857 212.882 27.8243 213.011 28.0091L217.851 35.098C217.923 35.2006 217.985 35.3135 218.036 35.4367C218.087 35.5599 218.133 35.6729 218.169 35.7807C218.205 35.8885 218.236 35.9809 218.257 36.0578C218.277 36.1348 218.287 36.181 218.287 36.2016V27.4598H221.434V41.2988H221.429Z" fill="#BE1E2D"/>
<path d="M112.761 26.3203C112.761 26.5974 112.719 26.8336 112.632 27.0389C112.545 27.2391 112.437 27.4085 112.304 27.5368C112.17 27.6703 112.016 27.7627 111.842 27.8243C111.667 27.8859 111.498 27.9167 111.328 27.9167V27.5471C111.513 27.5471 111.683 27.4855 111.842 27.3623C112.001 27.2391 112.093 27.0697 112.124 26.8592C112.103 26.8644 112.078 26.8746 112.052 26.8798C112.032 26.8849 112.006 26.8952 111.975 26.9003C111.944 26.9054 111.908 26.9106 111.862 26.9106C111.652 26.9106 111.472 26.8336 111.334 26.6693C111.19 26.5102 111.123 26.3254 111.123 26.1098C111.123 25.8942 111.195 25.7094 111.339 25.5503C111.482 25.3912 111.677 25.309 111.919 25.309C112.186 25.309 112.396 25.4117 112.545 25.6119C112.694 25.8121 112.766 26.0482 112.766 26.3203H112.761Z" fill="#BE1E2D"/>
<path d="M105.317 26.6127L105.117 26.238L107.987 23.4918L108.695 24.8572L105.317 26.6127Z" fill="#BE1E2D"/>
<path d="M199.449 26.0276L199.254 25.6477L202.118 22.9066L202.832 24.272L199.449 26.0276Z" fill="#BE1E2D"/>
<defs>
<linearGradient id="paint0_linear_296_10942" x1="31.8973" y1="13.3744" x2="24.0642" y2="66.7334" gradientUnits="userSpaceOnUse">
<stop stop-color="#FAAE42"/>
<stop offset="1" stop-color="#F15B2C"/>
</linearGradient>
<linearGradient id="paint1_linear_296_10942" x1="48.6211" y1="22.8194" x2="6.33942" y2="49.3783" gradientUnits="userSpaceOnUse">
<stop stop-color="#F28021"/>
<stop offset="1" stop-color="#FEC015"/>
</linearGradient>
<linearGradient id="paint2_linear_296_10942" x1="38.7654" y1="22.8552" x2="22.3342" y2="43.2954" gradientUnits="userSpaceOnUse">
<stop stop-color="#F28021"/>
<stop offset="1" stop-color="#FEC015"/>
</linearGradient>
<linearGradient id="paint3_linear_296_10942" x1="46.9063" y1="31.8076" x2="48.7132" y2="14.7348" gradientUnits="userSpaceOnUse">
<stop stop-color="#FAAE42"/>
<stop offset="1" stop-color="#F6E92D"/>
</linearGradient>
<linearGradient id="paint4_linear_296_10942" x1="47.9537" y1="32.3775" x2="54.5036" y2="18.1073" gradientUnits="userSpaceOnUse">
<stop stop-color="#FAAE42"/>
<stop offset="1" stop-color="#F6E92D"/>
</linearGradient>
<linearGradient id="paint5_linear_296_10942" x1="45.9105" y1="33.1936" x2="39.4068" y2="20.3248" gradientUnits="userSpaceOnUse">
<stop stop-color="#FAAE42"/>
<stop offset="1" stop-color="#F6E92D"/>
</linearGradient>
<linearGradient id="paint6_linear_296_10942" x1="39.0885" y1="32.3157" x2="49.3034" y2="5.74656" gradientUnits="userSpaceOnUse">
<stop stop-color="#F28021"/>
<stop offset="1" stop-color="#FEC015"/>
</linearGradient>
</defs>
</svg>
