<svg width="371" height="67" viewBox="0 0 371 67" fill="none" xmlns="http://www.w3.org/2000/svg">
<mask id="mask0_31_14442" style="mask-type:luminance" maskUnits="userSpaceOnUse" x="0" y="8" width="58" height="58">
<path d="M0.423828 36.5913C0.423828 52.3233 13.1623 65.0785 28.8643 65.0785C44.5663 65.0785 57.0978 52.54 57.3048 36.9964H54.727C54.6235 43.7979 51.9234 50.1755 47.0877 54.9799C42.2049 59.8314 35.7322 62.5067 28.8549 62.5067C14.5923 62.5067 2.98281 50.882 2.98281 36.6007C2.98281 22.3195 14.724 10.8266 28.8643 10.6948V8.11359C13.2752 8.24547 0.423828 20.9441 0.423828 36.5913Z" fill="white"/>
</mask>
<g mask="url(#mask0_31_14442)">
<path d="M1.63183 -0.0728138L-7.75391 63.8734L56.1028 73.246L65.4886 9.2998L1.63183 -0.0728138Z" fill="url(#paint0_linear_31_14442)"/>
</g>
<mask id="mask1_31_14442" style="mask-type:luminance" maskUnits="userSpaceOnUse" x="3" y="11" width="52" height="52">
<path d="M3.44336 36.7891C3.44336 43.9109 6.37867 50.3638 11.1109 54.9892C11.205 55.0834 11.2897 55.1682 11.3837 55.253C15.9372 59.4921 22.0336 62.0922 28.7228 62.0922C42.5902 62.0922 53.9645 50.8537 54.1809 36.9963H38.3848V46.3131H38.3566V46.4449H19.0795V27.1426H28.7228V11.3353C14.7706 11.4106 3.44336 22.7998 3.44336 36.7891Z" fill="white"/>
</mask>
<g mask="url(#mask1_31_14442)">
<path d="M39.8146 -11.5455L-19.3906 25.7002L17.8014 84.975L77.0066 47.7293L39.8146 -11.5455Z" fill="url(#paint1_linear_31_14442)"/>
</g>
<mask id="mask2_31_14442" style="mask-type:luminance" maskUnits="userSpaceOnUse" x="19" y="27" width="19" height="19">
<path d="M19.7852 27.7553V45.8236H37.8298V36.9967H35.6847V43.7322H21.8455V30.0256H28.8075V27.7553H19.7852Z" fill="white"/>
</mask>
<g mask="url(#mask2_31_14442)">
<path d="M26.8683 18.9352L10.9785 38.731L30.7485 54.6416L46.6382 34.8458L26.8683 18.9352Z" fill="url(#paint2_linear_31_14442)"/>
</g>
<mask id="mask3_31_14442" style="mask-type:luminance" maskUnits="userSpaceOnUse" x="46" y="9" width="5" height="20">
<path d="M46.8809 28.1507C47.3324 27.0391 47.991 25.8521 48.9318 24.5992C49.5151 23.8268 50.0984 23.1485 50.6911 22.5644C50.6911 22.3384 50.6911 22.1123 50.6911 21.8768C50.5594 14.331 48.0569 10.4404 46.8903 9.0368V28.1601L46.8809 28.1507Z" fill="white"/>
</mask>
<g mask="url(#mask3_31_14442)">
<path d="M46.9218 8.6291L44.8789 27.9364L50.6422 28.5462L52.6851 9.23892L46.9218 8.6291Z" fill="url(#paint3_linear_31_14442)"/>
</g>
<mask id="mask4_31_14442" style="mask-type:luminance" maskUnits="userSpaceOnUse" x="46" y="18" width="13" height="17">
<path d="M51.039 22.6963C50.9825 22.7528 50.9167 22.8188 50.8602 22.8753C50.8038 22.9318 50.7379 22.9978 50.6815 23.0637C50.1923 23.5724 49.7031 24.147 49.2232 24.7876C48.0378 26.3702 47.3134 27.8587 46.89 29.1964C46.8242 29.3942 46.7772 29.5826 46.7207 29.771C46.7866 30.0348 46.843 30.2891 46.89 30.534C47.2005 32.1826 47.0688 33.5109 46.89 34.3964C46.89 34.4341 46.8712 34.4812 46.8618 34.5189L46.89 34.4812L48.7905 31.8246L49.3079 31.1087L49.7501 30.4869L58.048 18.8999C56.7779 19.0789 53.9555 19.8137 51.0484 22.6869" fill="white"/>
</mask>
<g mask="url(#mask4_31_14442)">
<path d="M48.6838 14.6105L40.8008 31.8114L56.0723 38.8286L63.9553 21.6277L48.6838 14.6105Z" fill="url(#paint4_linear_31_14442)"/>
</g>
<mask id="mask5_31_14442" style="mask-type:luminance" maskUnits="userSpaceOnUse" x="35" y="18" width="12" height="17">
<path d="M43.3057 30.4966L46.194 34.5285L46.4104 34.8299C46.4104 34.8299 46.4292 34.7734 46.4292 34.7452C46.4574 34.6227 46.495 34.4908 46.5233 34.3495C46.6926 33.5017 46.8149 32.2205 46.5233 30.6285C46.495 30.4872 46.4668 30.3364 46.4292 30.1857C46.4009 30.0538 46.3633 29.9219 46.3351 29.7901C45.9494 28.3111 45.1967 26.6154 43.8326 24.7973C43.2304 23.9965 42.6189 23.2994 42.0074 22.6965C39.1003 19.8233 36.2779 19.0885 35.0078 18.9095L43.3057 30.4966Z" fill="white"/>
</mask>
<g mask="url(#mask5_31_14442)">
<path d="M44.4042 14.151L28.6016 22.1475L37.4022 39.5851L53.2049 31.5887L44.4042 14.151Z" fill="url(#paint5_linear_31_14442)"/>
</g>
<mask id="mask6_31_14442" style="mask-type:luminance" maskUnits="userSpaceOnUse" x="30" y="1" width="33" height="36">
<path d="M46.1952 34.5285L43.3069 30.4966L35.009 18.9095C36.2885 19.098 39.1015 19.8233 42.0086 22.6965C42.6201 23.2994 43.2317 23.9965 43.8338 24.7973C45.1979 26.6154 45.9506 28.3016 46.3363 29.7901C46.3739 29.9219 46.4022 30.0538 46.4304 30.1857C46.468 30.3364 46.4962 30.4872 46.5151 30.6285C46.6468 31.3256 46.6844 31.9662 46.6844 32.5314C46.6844 33.2568 46.6091 33.8691 46.5151 34.3401C46.4868 34.4908 46.4492 34.6227 46.421 34.7357C46.421 34.764 46.4022 34.7923 46.4022 34.8205L46.1858 34.5191L46.1952 34.5285ZM46.882 34.406C47.0607 33.5205 47.1924 32.1923 46.882 30.5437C46.8349 30.2988 46.7785 30.0444 46.7126 29.7806C46.7597 29.5922 46.8161 29.4038 46.882 29.206C47.3053 27.8683 48.0298 26.3799 49.2152 24.7973C49.695 24.1567 50.1936 23.582 50.6828 23.0639C50.7393 22.998 50.8051 22.932 50.8616 22.8755L51.0403 22.6871C53.9474 19.8139 56.7698 19.0885 58.0493 18.9001L49.7514 30.4872L49.3092 31.0995L48.8012 31.8154L46.8914 34.472L46.8726 34.5097C46.8726 34.5097 46.8914 34.4249 46.8914 34.3872M46.8914 9.00875C48.058 10.4218 50.5605 14.303 50.6922 21.8487C50.6922 22.0842 50.6922 22.3103 50.6922 22.5364C50.0995 23.1204 49.5068 23.7987 48.9329 24.5712C47.9921 25.8241 47.343 27.0111 46.882 28.1227V9.02759L46.8914 9.00875ZM46.4022 8.25512C46.4022 8.25512 46.3834 8.26454 46.3834 8.27396L46.1387 3.29059L45.6966 3.30944L45.96 8.73556C44.7652 10.1392 42.178 14.0675 42.0368 21.8487C42.0368 21.9617 42.0368 22.0748 42.0368 22.1878C38.8381 19.1451 35.7899 18.5987 34.7174 18.5139L31.2646 13.1443L30.8789 13.3704L34.2658 18.6269C34.2658 18.6269 34.2564 18.6646 34.247 18.6835L31.5751 14.9813L31.2082 15.2262L34.0965 19.2298C33.739 20.7748 33.3814 24.6089 36.7119 29.4886C40.3058 34.7452 44.6429 35.4705 46.0729 35.5647V36.9778H47.1642V35.5553C48.7071 35.4234 52.9031 34.6039 56.3935 29.4886C59.6299 24.7408 59.3853 20.9914 59.0466 19.3617L62.0383 15.2262L61.6714 14.9813L58.9054 18.8059C58.9054 18.8059 58.896 18.7777 58.8866 18.7588L62.3582 13.3704L61.9819 13.1443L58.5291 18.5045C57.6071 18.5704 54.4272 19.0132 51.0686 22.1973C51.0686 22.0842 51.0686 21.9712 51.0686 21.8581C50.918 13.3892 47.8604 9.47977 46.8726 8.43411L46.9102 1.58551H46.468L46.421 8.25512H46.4022Z" fill="white"/>
</mask>
<g mask="url(#mask6_31_14442)">
<path d="M34.9015 -8.96618L18.9961 32.4368L58.2638 47.5615L74.1693 6.15854L34.9015 -8.96618Z" fill="url(#paint6_linear_31_14442)"/>
</g>
<path d="M6.78381 41.6596L6.38867 40.3314L13.0402 40.6705L13.4729 42.1212L8.10093 46.0495L7.69639 44.6836L8.81595 43.9299L8.14797 41.7067L6.78381 41.6596ZM9.28635 41.7256L9.74734 43.2611L11.9018 41.8009V41.7821L9.28635 41.7256Z" fill="white"/>
<path d="M13.9908 48.8377L15.6278 50.8914L12.9841 53.0015L12.4385 52.3138L12.9747 51.7203C12.4667 51.7015 11.7235 51.6732 11.0084 50.7783C10.0676 49.5913 10.0582 47.8392 11.7799 46.4732C13.1158 45.4087 14.9692 45.1449 16.2769 46.7935H16.2864C17.4906 48.3102 16.9826 49.6855 16.3522 50.2885L15.5337 49.2616C15.7219 49.1109 16.0606 48.2725 15.4867 47.5471C14.9034 46.8123 13.8591 46.5391 12.5984 47.5471C11.2531 48.6116 11.4883 49.629 12.0433 50.3261C12.2221 50.5522 12.9089 51.2305 14.0661 50.6558L13.1535 49.516L13.9814 48.8566L13.9908 48.8377Z" fill="white"/>
<path d="M18.9483 49.893L21.7519 51.3908C23.2195 52.1727 22.909 53.4068 22.655 53.8872C22.3257 54.4996 21.7425 54.8575 21.0933 54.7539C21.4414 55.1967 21.6013 55.4981 21.0463 56.5344C20.6135 57.3445 20.51 57.5423 20.7076 57.7684L20.6323 57.9192L19.3528 57.2315C19.4187 56.93 19.5222 56.6191 19.8232 56.0445C20.2278 55.2909 20.3312 54.9706 19.4845 54.509L18.2897 53.8684L17.1325 56.0351L15.9941 55.4322L18.9483 49.893ZM20.1431 53.6611C20.7452 53.9814 21.1497 53.9343 21.4414 53.3785C21.6013 53.0865 21.6954 52.5872 21.018 52.2198L19.5786 51.4474L18.7883 52.9264L20.1431 53.6517V53.6611Z" fill="white"/>
<path d="M24.9213 52.5189L23.6562 58.6733L24.9371 58.9372L26.2021 52.7829L24.9213 52.5189Z" fill="white"/>
<path d="M29.0424 57.3726C29.0801 57.7212 29.3059 58.3712 30.4442 58.2864C31.0652 58.2393 31.7425 58.0415 31.6861 57.3726C31.6485 56.8828 31.1687 56.7886 30.4913 56.685L29.8045 56.5813C28.779 56.4212 27.7818 56.2705 27.6783 54.8951C27.6218 54.198 27.9041 52.9357 29.9362 52.7849C31.8554 52.6436 32.467 53.8589 32.5328 54.6219L31.2816 54.7161C31.2251 54.4429 31.0746 53.7835 29.9268 53.8683C29.4282 53.906 28.8543 54.132 28.8919 54.6973C28.9295 55.1871 29.3341 55.2625 29.6069 55.3002L31.1592 55.5545C32.0342 55.6958 32.8433 55.9879 32.928 57.1089C33.0691 58.9929 31.1687 59.3038 30.6136 59.3509C28.3274 59.5299 27.8382 58.2393 27.7818 57.4574L29.033 57.3632L29.0424 57.3726Z" fill="white"/>
<path d="M38.3667 51.4095L35.3561 52.8319L35.9206 54.0283L38.6865 52.7189L39.1664 53.7269L36.4004 55.0363L37.0966 56.5059L40.2389 55.0175L40.7187 56.016L36.4098 58.0602L33.7285 52.3798L37.8963 50.4015L38.3667 51.4095Z" fill="white"/>
<path d="M43.2404 48.0841C42.8923 47.9051 42.2338 47.566 41.4999 48.3667C41.0672 48.8283 40.7473 49.7892 42.0456 51.0044C42.8735 51.7769 43.9178 52.1349 44.6705 51.3247C45.1691 50.7877 45.2067 50.1377 44.7551 49.4971L45.6489 48.5363C46.4674 49.6573 46.5615 50.9667 45.489 52.116C44.3506 53.3407 42.7136 53.4443 41.1236 51.9747C39.5148 50.4769 39.5619 48.7906 40.6626 47.6037C41.9421 46.2283 43.4098 46.5486 44.1342 47.1326L43.2404 48.0935V48.0841Z" fill="white"/>
<path d="M43.9457 42.1116C44.2185 41.3298 45.291 39.3892 48.0664 40.3689C50.8417 41.358 50.4466 43.5341 50.1738 44.3254C49.9009 45.1073 48.8284 47.0479 46.0531 46.0682C43.2777 45.0791 43.6728 42.903 43.9457 42.1116ZM49.1295 43.9486C49.3647 43.2798 49.2894 42.1964 47.6336 41.603C45.9778 41.0189 45.2346 41.8102 44.9994 42.479C44.7642 43.1479 44.8394 44.2312 46.4952 44.8247C48.151 45.4182 48.8943 44.6175 49.1295 43.9486Z" fill="white"/>
<mask id="mask7_31_14442" style="mask-type:luminance" maskUnits="userSpaceOnUse" x="107" y="41" width="8" height="10">
<path d="M109.333 42.2435C108.665 42.6203 108.129 43.1384 107.743 43.7884C107.358 44.4384 107.16 45.1638 107.16 45.9457C107.16 46.7276 107.348 47.4624 107.734 48.1218C108.12 48.7812 108.637 49.2994 109.305 49.6762C109.973 50.053 110.698 50.2414 111.497 50.2414C112.071 50.2414 112.645 50.1189 113.2 49.8834C113.755 49.6479 114.254 49.3182 114.677 48.9037L113.981 48.1501C113.652 48.4609 113.275 48.7059 112.852 48.8943C112.429 49.0733 111.996 49.1675 111.554 49.1675C110.961 49.1675 110.415 49.0262 109.926 48.7341C109.427 48.4421 109.042 48.0559 108.75 47.5566C108.458 47.0573 108.317 46.5203 108.317 45.9363C108.317 45.3522 108.458 44.7964 108.75 44.3066C109.042 43.8167 109.427 43.421 109.926 43.1384C110.425 42.8464 110.961 42.7051 111.554 42.7051C112.005 42.7051 112.438 42.7993 112.861 42.9877C113.285 43.1761 113.661 43.4399 113.981 43.7696L114.668 42.9406C114.273 42.5355 113.793 42.2341 113.247 42.008C112.701 41.7913 112.137 41.6783 111.554 41.6783C110.745 41.6783 110.001 41.8667 109.333 42.2435Z" fill="white"/>
</mask>
<g mask="url(#mask7_31_14442)">
<path d="M114.687 41.6877H107.16V50.2508H114.687V41.6877Z" fill="url(#paint7_linear_31_14442)"/>
</g>
<mask id="mask8_31_14442" style="mask-type:luminance" maskUnits="userSpaceOnUse" x="116" y="41" width="7" height="10">
<path d="M116.248 41.2545V50.1662H117.358V47.048C117.358 46.398 117.537 45.8705 117.894 45.4654C118.252 45.0603 118.741 44.8531 119.362 44.8437C119.889 44.8437 120.303 44.9944 120.604 45.2959C120.905 45.5973 121.056 46.0118 121.056 46.5488V50.1756H122.175V46.2473C122.175 45.4748 121.959 44.8719 121.535 44.4386C121.112 44.0053 120.529 43.7792 119.785 43.7792C118.591 43.798 117.782 44.269 117.358 45.1828V41.2545H116.248Z" fill="white"/>
</mask>
<g mask="url(#mask8_31_14442)">
<path d="M122.175 41.2545H116.248V50.1662H122.175V41.2545Z" fill="url(#paint8_linear_31_14442)"/>
</g>
<mask id="mask9_31_14442" style="mask-type:luminance" maskUnits="userSpaceOnUse" x="123" y="41" width="7" height="10">
<path d="M125.055 48.9982C124.81 48.8098 124.678 48.546 124.678 48.2163C124.678 47.8866 124.801 47.6511 125.045 47.5004C125.29 47.3496 125.666 47.2743 126.165 47.2743H128.028V47.9149C127.952 48.3293 127.736 48.6685 127.369 48.9134C127.002 49.1678 126.56 49.2902 126.043 49.2902C125.629 49.2902 125.299 49.196 125.045 48.9982M125.243 43.9677C124.857 44.0996 124.434 44.3163 123.973 44.6083L124.443 45.3808C125.102 44.9286 125.76 44.6931 126.4 44.6931C126.927 44.6931 127.331 44.8156 127.604 45.0605C127.877 45.3054 128.018 45.654 128.018 46.0967V46.3982H126.005C125.252 46.3982 124.669 46.5772 124.246 46.9069C123.832 47.2366 123.615 47.6888 123.615 48.254C123.615 48.6214 123.709 48.9511 123.888 49.2525C124.067 49.5446 124.321 49.7801 124.66 49.9496C124.989 50.1192 125.375 50.204 125.817 50.204C126.823 50.204 127.567 49.8931 128.037 49.2714V50.1569H129.138V45.9743C129.119 45.2772 128.893 44.7308 128.47 44.3445C128.037 43.9583 127.425 43.7605 126.635 43.7605C126.099 43.7605 125.638 43.8264 125.252 43.9583M127.331 41.217C127.313 41.4619 127.228 41.6597 127.077 41.8199C126.927 41.98 126.739 42.0648 126.513 42.0648C126.287 42.0648 126.099 41.9894 125.948 41.8199C125.798 41.6597 125.713 41.4619 125.694 41.217H124.914C124.932 41.6974 125.083 42.0837 125.384 42.3851C125.685 42.6866 126.061 42.8279 126.513 42.8279C126.964 42.8279 127.331 42.6771 127.632 42.3851C127.934 42.0931 128.093 41.6974 128.103 41.217H127.322H127.331Z" fill="white"/>
</mask>
<g mask="url(#mask9_31_14442)">
<path d="M129.148 41.2262H123.625V50.2132H129.148V41.2262Z" fill="url(#paint9_linear_31_14442)"/>
</g>
<mask id="mask10_31_14442" style="mask-type:luminance" maskUnits="userSpaceOnUse" x="131" y="43" width="11" height="8">
<path d="M136.853 45.3713C136.711 44.8626 136.457 44.4763 136.062 44.1937C135.677 43.9111 135.187 43.7698 134.604 43.7698C133.447 43.7886 132.657 44.2408 132.243 45.1358V43.7981H131.123V50.1474H132.243V47.0104C132.243 46.3698 132.412 45.8423 132.76 45.4372C133.108 45.0321 133.579 44.8155 134.181 44.806C134.698 44.806 135.103 44.9568 135.394 45.2582C135.677 45.5597 135.827 45.9836 135.827 46.5205V50.1474H136.956V47.0104C136.956 46.3698 137.125 45.8423 137.473 45.4372C137.822 45.0321 138.292 44.8155 138.894 44.806C139.402 44.806 139.807 44.9568 140.098 45.2582C140.39 45.5597 140.54 45.9836 140.54 46.5205V50.1474H141.669V46.2191C141.669 45.456 141.462 44.8531 141.049 44.4198C140.635 43.977 140.061 43.7604 139.336 43.7604C138.076 43.7792 137.257 44.3068 136.862 45.3618" fill="white"/>
</mask>
<g mask="url(#mask10_31_14442)">
<path d="M141.67 43.7697H131.133V50.1567H141.67V43.7697Z" fill="url(#paint10_linear_31_14442)"/>
</g>
<mask id="mask11_31_14442" style="mask-type:luminance" maskUnits="userSpaceOnUse" x="146" y="41" width="2" height="10">
<path d="M147.973 41.2545H146.854V50.1662H147.973V41.2545Z" fill="white"/>
</mask>
<g mask="url(#mask11_31_14442)">
<path d="M147.973 41.2545H146.854V50.1662H147.973V41.2545Z" fill="url(#paint11_linear_31_14442)"/>
</g>
<mask id="mask12_31_14442" style="mask-type:luminance" maskUnits="userSpaceOnUse" x="149" y="43" width="8" height="8">
<path d="M151.744 48.9696C151.415 48.7812 151.17 48.5174 150.992 48.1689C150.813 47.8297 150.719 47.4341 150.719 46.9913C150.719 46.5486 150.803 46.1718 150.992 45.8326C151.17 45.4935 151.424 45.2297 151.744 45.0319C152.064 44.8435 152.44 44.7399 152.854 44.7399C153.268 44.7399 153.626 44.8341 153.955 45.0319C154.275 45.2203 154.529 45.4935 154.708 45.8326C154.887 46.1718 154.981 46.558 154.981 46.9913C154.981 47.4247 154.887 47.8297 154.708 48.1689C154.529 48.5174 154.275 48.7812 153.955 48.9696C153.635 49.158 153.268 49.2522 152.854 49.2522C152.44 49.2522 152.064 49.158 151.744 48.9696ZM151.161 44.1841C150.672 44.4573 150.286 44.8341 150.004 45.3239C149.731 45.8044 149.59 46.3602 149.59 46.9913C149.59 47.6225 149.731 48.1783 150.004 48.6682C150.277 49.1486 150.662 49.5348 151.161 49.7986C151.65 50.0718 152.215 50.2037 152.854 50.2037C153.494 50.2037 154.049 50.0718 154.538 49.7986C155.028 49.5254 155.413 49.1486 155.686 48.6587C155.959 48.1689 156.1 47.6131 156.1 46.9913C156.1 46.3696 155.959 45.8138 155.686 45.3239C155.413 44.8435 155.028 44.4573 154.538 44.1841C154.049 43.9109 153.485 43.779 152.854 43.779C152.224 43.779 151.65 43.9203 151.161 44.1841Z" fill="white"/>
</mask>
<g mask="url(#mask12_31_14442)">
<path d="M156.1 43.7699H149.59V50.1946H156.1V43.7699Z" fill="url(#paint12_linear_31_14442)"/>
</g>
<mask id="mask13_31_14442" style="mask-type:luminance" maskUnits="userSpaceOnUse" x="160" y="43" width="7" height="10">
<path d="M161.813 48.3763C161.436 47.9807 161.248 47.4626 161.239 46.8408C161.239 46.4263 161.324 46.0495 161.502 45.7292C161.681 45.3995 161.916 45.1546 162.227 44.9662C162.537 44.7778 162.885 44.693 163.271 44.693C163.657 44.693 164.014 44.7872 164.315 44.9662C164.616 45.1546 164.861 45.3995 165.03 45.7292C165.2 46.0495 165.284 46.4263 165.284 46.8408C165.284 47.2553 165.2 47.6133 165.03 47.943C164.861 48.2633 164.616 48.5177 164.315 48.7061C164.014 48.8945 163.666 48.9887 163.271 48.9887C162.669 48.9887 162.18 48.7908 161.803 48.3858M161.549 44.1749C161.117 44.4292 160.778 44.7872 160.533 45.2394C160.298 45.701 160.176 46.2191 160.176 46.8126C160.176 47.4061 160.298 47.943 160.533 48.414C160.768 48.8756 161.107 49.243 161.549 49.4974C161.982 49.7611 162.49 49.8836 163.055 49.8836C163.553 49.8836 163.995 49.78 164.372 49.5633C164.758 49.3466 165.059 49.0546 165.284 48.6684V49.5633C165.284 50.1756 165.087 50.6749 164.692 51.0423C164.297 51.4097 163.779 51.5981 163.121 51.5981C162.716 51.5981 162.349 51.5322 162.02 51.4097C161.681 51.2872 161.361 51.0988 161.051 50.8351L160.562 51.6546C161.371 52.2481 162.236 52.5401 163.177 52.5401C163.826 52.5401 164.391 52.4177 164.88 52.1728C165.369 51.9278 165.745 51.5793 166.009 51.1271C166.282 50.6655 166.413 50.138 166.413 49.5256V43.8169H165.284V44.985C165.059 44.5988 164.757 44.3068 164.381 44.0995C164.005 43.8923 163.563 43.7886 163.055 43.7886C162.49 43.7886 161.982 43.9205 161.549 44.1749Z" fill="white"/>
</mask>
<g mask="url(#mask13_31_14442)">
<path d="M166.423 43.7697H160.186V52.5306H166.423V43.7697Z" fill="url(#paint13_linear_31_14442)"/>
</g>
<mask id="mask14_31_14442" style="mask-type:luminance" maskUnits="userSpaceOnUse" x="168" y="41" width="2" height="10">
<path d="M168.463 50.166H169.574V43.8167H168.463V50.166ZM168.52 41.4804C168.388 41.6123 168.322 41.7913 168.322 41.9986C168.322 42.2058 168.388 42.3754 168.52 42.5167C168.652 42.658 168.821 42.7239 169.018 42.7239C169.216 42.7239 169.385 42.658 169.517 42.5167C169.649 42.3848 169.715 42.2058 169.715 41.9986C169.715 41.7913 169.649 41.6217 169.517 41.4804C169.385 41.3486 169.216 41.2732 169.018 41.2732C168.821 41.2732 168.652 41.3391 168.52 41.4804Z" fill="white"/>
</mask>
<g mask="url(#mask14_31_14442)">
<path d="M169.715 41.2732H168.322V50.1566H169.715V41.2732Z" fill="url(#paint14_linear_31_14442)"/>
</g>
<mask id="mask15_31_14442" style="mask-type:luminance" maskUnits="userSpaceOnUse" x="171" y="43" width="7" height="8">
<path d="M172.903 45.2017C173.28 44.8626 173.741 44.7024 174.305 44.7024C174.87 44.7024 175.34 44.872 175.698 45.2017C176.055 45.5314 176.243 45.9836 176.272 46.5676H172.245C172.32 46.0024 172.537 45.5502 172.913 45.2111M172.659 44.1937C172.179 44.4669 171.803 44.8531 171.539 45.3336C171.266 45.814 171.135 46.3698 171.135 46.9916C171.135 47.6133 171.266 48.1785 171.539 48.659C171.803 49.1488 172.179 49.5256 172.668 49.7988C173.148 50.072 173.703 50.2039 174.334 50.2039C174.87 50.2039 175.359 50.1097 175.801 49.9307C176.243 49.7423 176.62 49.488 176.93 49.1488L176.319 48.5177C176.074 48.7626 175.801 48.9604 175.472 49.0923C175.152 49.2336 174.794 49.2995 174.418 49.2995C173.854 49.2995 173.374 49.13 172.988 48.7908C172.602 48.4517 172.358 47.9995 172.273 47.4343H177.288C177.288 47.3495 177.297 47.2365 177.297 47.0763C177.297 46.0401 177.043 45.2394 176.544 44.6553C176.036 44.0712 175.293 43.7886 174.315 43.7886C173.694 43.7886 173.148 43.9299 172.668 44.2031" fill="white"/>
</mask>
<g mask="url(#mask15_31_14442)">
<path d="M177.278 43.7697H171.125V50.1943H177.278V43.7697Z" fill="url(#paint15_linear_31_14442)"/>
</g>
<mask id="mask16_31_14442" style="mask-type:luminance" maskUnits="userSpaceOnUse" x="178" y="43" width="7" height="8">
<path d="M180.328 48.9695C179.999 48.7811 179.754 48.5174 179.576 48.1688C179.397 47.8297 179.303 47.434 179.303 46.9913C179.303 46.5485 179.397 46.1717 179.576 45.8326C179.754 45.4934 180.008 45.2297 180.328 45.0318C180.658 44.8434 181.024 44.7398 181.438 44.7398C181.852 44.7398 182.21 44.834 182.539 45.0318C182.868 45.2202 183.113 45.4934 183.292 45.8326C183.471 46.1717 183.565 46.5579 183.565 46.9913C183.565 47.4246 183.471 47.8297 183.292 48.1688C183.113 48.5174 182.859 48.7811 182.539 48.9695C182.219 49.158 181.852 49.2522 181.438 49.2522C181.024 49.2522 180.658 49.158 180.328 48.9695ZM179.736 44.184C179.246 44.4572 178.861 44.834 178.588 45.3239C178.315 45.8043 178.174 46.3601 178.174 46.9913C178.174 47.6224 178.315 48.1782 178.588 48.6681C178.861 49.1485 179.246 49.5348 179.736 49.7985C180.225 50.0717 180.789 50.2036 181.438 50.2036C182.088 50.2036 182.633 50.0717 183.122 49.7985C183.612 49.5253 183.997 49.1485 184.27 48.6587C184.543 48.1688 184.684 47.613 184.684 46.9913C184.684 46.3695 184.543 45.8137 184.27 45.3239C183.997 44.8434 183.612 44.4572 183.122 44.184C182.633 43.9108 182.069 43.7789 181.438 43.7789C180.808 43.7789 180.234 43.9202 179.736 44.184Z" fill="white"/>
</mask>
<g mask="url(#mask16_31_14442)">
<path d="M184.694 43.77H178.184V50.1946H184.694V43.77Z" fill="url(#paint16_linear_31_14442)"/>
</g>
<mask id="mask17_31_14442" style="mask-type:luminance" maskUnits="userSpaceOnUse" x="188" y="42" width="5" height="9">
<path d="M189.622 42.3187V44.0238H188.719V44.8716H189.622V48.3949C189.622 49.0072 189.782 49.4594 190.092 49.7608C190.403 50.0623 190.817 50.213 191.315 50.213C191.814 50.213 192.313 50.0528 192.802 49.742L192.501 48.8753C192.143 49.0731 191.823 49.1767 191.513 49.1767C191.259 49.1767 191.061 49.1014 190.939 48.9507C190.807 48.7999 190.751 48.5456 190.751 48.197V44.8811H192.698V44.0332H190.751V42.3281H189.622V42.3187Z" fill="white"/>
</mask>
<g mask="url(#mask17_31_14442)">
<path d="M192.792 42.3187H188.719V50.213H192.792V42.3187Z" fill="url(#paint17_linear_31_14442)"/>
</g>
<mask id="mask18_31_14442" style="mask-type:luminance" maskUnits="userSpaceOnUse" x="194" y="43" width="4" height="8">
<path d="M196.161 44.1372C195.775 44.3727 195.483 44.7213 195.276 45.1734V43.8075H194.166V50.1568H195.276V46.8032C195.333 46.1908 195.558 45.7104 195.963 45.3524C196.358 44.9944 196.885 44.8249 197.534 44.8437V43.7604C197.007 43.7604 196.546 43.8923 196.17 44.1278" fill="white"/>
</mask>
<g mask="url(#mask18_31_14442)">
<path d="M197.524 43.7697H194.156V50.1567H197.524V43.7697Z" fill="url(#paint18_linear_31_14442)"/>
</g>
<mask id="mask19_31_14442" style="mask-type:luminance" maskUnits="userSpaceOnUse" x="198" y="39" width="7" height="12">
<path d="M200.262 48.9697C199.942 48.7813 199.688 48.5175 199.51 48.1689C199.331 47.8298 199.237 47.4342 199.237 46.9914C199.237 46.5486 199.331 46.1718 199.51 45.8327C199.688 45.4936 199.942 45.2298 200.262 45.032C200.591 44.8436 200.958 44.7399 201.372 44.7399C201.786 44.7399 202.144 44.8341 202.473 45.032C202.793 45.2204 203.047 45.4936 203.226 45.8327C203.404 46.1718 203.499 46.5581 203.499 46.9914C203.499 47.4247 203.404 47.8298 203.226 48.1689C203.047 48.5175 202.793 48.7813 202.473 48.9697C202.153 49.1581 201.786 49.2523 201.372 49.2523C200.958 49.2523 200.591 49.1581 200.262 48.9697ZM199.679 44.1841C199.19 44.4573 198.804 44.8341 198.531 45.324C198.258 45.8044 198.117 46.3602 198.117 46.9914C198.117 47.6226 198.258 48.1784 198.531 48.6682C198.804 49.1487 199.19 49.5349 199.679 49.7987C200.168 50.0719 200.733 50.2037 201.372 50.2037C202.012 50.2037 202.567 50.0719 203.056 49.7987C203.546 49.5255 203.931 49.1487 204.204 48.6588C204.477 48.1689 204.618 47.6131 204.618 46.9914C204.618 46.3697 204.477 45.8139 204.204 45.324C203.931 44.8436 203.546 44.4573 203.056 44.1841C202.567 43.9109 202.003 43.7791 201.372 43.7791C200.742 43.7791 200.168 43.9204 199.679 44.1841ZM200.582 41.7348L199.312 42.8841H200.516L201.382 42.2153L202.238 42.8841H203.433L202.153 41.7348H200.592H200.582ZM199.585 40.4631L201.25 41.3675L202.106 41.1037L200.544 39.8225L199.585 40.4725V40.4631Z" fill="white"/>
</mask>
<g mask="url(#mask19_31_14442)">
<path d="M204.628 39.8132H198.117V50.2039H204.628V39.8132Z" fill="url(#paint19_linear_31_14442)"/>
</g>
<mask id="mask20_31_14442" style="mask-type:luminance" maskUnits="userSpaceOnUse" x="206" y="43" width="7" height="8">
<path d="M207.3 45.1546V43.8075H206.189V50.1568H207.3V46.7561C207.347 46.1908 207.554 45.7198 207.902 45.3713C208.259 45.0133 208.72 44.8343 209.285 44.8249C209.812 44.8249 210.226 44.9756 210.527 45.2771C210.828 45.5785 210.978 45.993 210.978 46.53V50.1568H212.098V46.2285C212.098 45.456 211.881 44.8531 211.458 44.4198C211.035 43.9865 210.451 43.7604 209.708 43.7604C208.523 43.7792 207.723 44.2408 207.3 45.1452" fill="white"/>
</mask>
<g mask="url(#mask20_31_14442)">
<path d="M212.107 43.7698H206.189V50.1568H212.107V43.7698Z" fill="url(#paint20_linear_31_14442)"/>
</g>
<mask id="mask21_31_14442" style="mask-type:luminance" maskUnits="userSpaceOnUse" x="213" y="43" width="7" height="10">
<path d="M215.1 48.3763C214.724 47.9807 214.536 47.4626 214.526 46.8408C214.526 46.4263 214.611 46.0495 214.79 45.7292C214.969 45.3995 215.204 45.1546 215.514 44.9662C215.825 44.7778 216.173 44.693 216.568 44.693C216.963 44.693 217.311 44.7872 217.612 44.9662C217.913 45.1546 218.158 45.3995 218.327 45.7292C218.497 46.0495 218.591 46.4263 218.591 46.8408C218.591 47.2553 218.506 47.6133 218.327 47.943C218.158 48.2633 217.923 48.5177 217.612 48.7061C217.311 48.8945 216.963 48.9887 216.568 48.9887C215.966 48.9887 215.477 48.7908 215.1 48.3858M214.846 44.1749C214.413 44.4292 214.075 44.7872 213.83 45.2394C213.595 45.701 213.473 46.2191 213.473 46.8126C213.473 47.4061 213.595 47.943 213.83 48.414C214.075 48.8756 214.404 49.243 214.846 49.4974C215.279 49.7611 215.787 49.8836 216.352 49.8836C216.85 49.8836 217.283 49.78 217.669 49.5633C218.054 49.3466 218.355 49.0546 218.581 48.6684V49.5633C218.581 50.1756 218.384 50.6749 217.998 51.0423C217.603 51.4097 217.085 51.5981 216.427 51.5981C216.022 51.5981 215.655 51.5322 215.326 51.4097C214.987 51.2872 214.667 51.0988 214.357 50.8351L213.868 51.6546C214.677 52.2481 215.542 52.5401 216.483 52.5401C217.132 52.5401 217.697 52.4177 218.186 52.1728C218.675 51.9278 219.052 51.5793 219.324 51.1271C219.597 50.6655 219.729 50.138 219.729 49.5256V43.8169H218.6V44.985C218.374 44.5988 218.073 44.3068 217.697 44.0995C217.321 43.8923 216.878 43.7886 216.37 43.7886C215.806 43.7886 215.298 43.9205 214.865 44.1749" fill="white"/>
</mask>
<g mask="url(#mask21_31_14442)">
<path d="M219.71 43.7698H213.473V52.5307H219.71V43.7698Z" fill="url(#paint21_linear_31_14442)"/>
</g>
<mask id="mask22_31_14442" style="mask-type:luminance" maskUnits="userSpaceOnUse" x="224" y="41" width="8" height="10">
<path d="M226.427 48.9886C226.098 48.8002 225.853 48.5459 225.665 48.2162C225.477 47.8864 225.392 47.5191 225.392 47.1046C225.392 46.6901 225.486 46.3132 225.665 45.9835C225.853 45.6538 226.098 45.3995 226.427 45.2111C226.747 45.0227 227.123 44.9285 227.537 44.9285C227.951 44.9285 228.318 45.0227 228.638 45.2111C228.967 45.3995 229.221 45.6538 229.41 45.9835C229.598 46.3132 229.682 46.6806 229.682 47.1046C229.682 47.5285 229.588 47.8959 229.41 48.2162C229.221 48.5459 228.967 48.8002 228.638 48.9886C228.309 49.177 227.942 49.2618 227.537 49.2618C227.133 49.2618 226.756 49.1676 226.427 48.9886ZM229.682 41.2545V42.319H227.105V43.0161H229.682V45.3241C229.438 44.9002 229.099 44.5705 228.676 44.3256C228.252 44.0806 227.782 43.9582 227.255 43.9582C226.672 43.9582 226.154 44.09 225.703 44.3538C225.251 44.6176 224.894 44.985 224.64 45.456C224.386 45.927 224.254 46.4734 224.254 47.0763C224.254 47.6792 224.386 48.2256 224.64 48.706C224.894 49.1865 225.251 49.5539 225.712 49.827C226.173 50.0908 226.691 50.2321 227.274 50.2321C227.791 50.2321 228.262 50.1097 228.676 49.8741C229.09 49.6292 229.419 49.2995 229.673 48.8662V50.1756H230.792V43.0255H231.667V42.3284H230.792V41.2639H229.673L229.682 41.2545Z" fill="white"/>
</mask>
<g mask="url(#mask22_31_14442)">
<path d="M231.677 41.2545H224.264V50.2226H231.677V41.2545Z" fill="url(#paint22_linear_31_14442)"/>
</g>
<mask id="mask23_31_14442" style="mask-type:luminance" maskUnits="userSpaceOnUse" x="232" y="39" width="7" height="12">
<path d="M234.565 48.9697C234.245 48.7813 233.991 48.5175 233.812 48.1689C233.633 47.8298 233.539 47.4342 233.539 46.9914C233.539 46.5486 233.633 46.1718 233.812 45.8327C233.991 45.4936 234.245 45.2298 234.565 45.032C234.894 44.8436 235.261 44.7399 235.675 44.7399C236.089 44.7399 236.446 44.8341 236.775 45.032C237.095 45.2204 237.349 45.4936 237.528 45.8327C237.707 46.1718 237.801 46.5581 237.801 46.9914C237.801 47.4247 237.707 47.8298 237.528 48.1689C237.349 48.5175 237.095 48.7813 236.775 48.9697C236.456 49.1581 236.089 49.2523 235.675 49.2523C235.261 49.2523 234.894 49.1581 234.565 48.9697ZM233.981 44.1841C233.492 44.4573 233.106 44.8341 232.824 45.324C232.551 45.8044 232.41 46.3602 232.41 46.9914C232.41 47.6226 232.551 48.1784 232.824 48.6682C233.106 49.1487 233.483 49.5349 233.981 49.7987C234.471 50.0719 235.035 50.2037 235.675 50.2037C236.314 50.2037 236.87 50.0719 237.359 49.7987C237.848 49.5255 238.234 49.1487 238.507 48.6588C238.779 48.1689 238.921 47.6131 238.921 46.9914C238.921 46.3697 238.779 45.8139 238.507 45.324C238.234 44.8436 237.848 44.4573 237.359 44.1841C236.87 43.9109 236.305 43.7791 235.675 43.7791C235.044 43.7791 234.471 43.9204 233.981 44.1841ZM234.884 41.7348L233.614 42.8841H234.809L235.675 42.2153L236.521 42.8841H237.726L236.446 41.7348H234.884ZM233.887 40.4631L235.552 41.3675L236.409 41.1037L234.847 39.8225L233.887 40.4725V40.4631Z" fill="white"/>
</mask>
<g mask="url(#mask23_31_14442)">
<path d="M238.921 39.8132H232.41V50.2039H238.921V39.8132Z" fill="url(#paint23_linear_31_14442)"/>
</g>
<mask id="mask24_31_14442" style="mask-type:luminance" maskUnits="userSpaceOnUse" x="240" y="43" width="7" height="8">
<path d="M241.6 45.1548V43.8077H240.48V50.157H241.6V46.7563C241.647 46.1911 241.854 45.7201 242.202 45.3715C242.56 45.0135 243.021 44.8345 243.585 44.8251C244.112 44.8251 244.526 44.9758 244.827 45.2773C245.128 45.5787 245.279 45.9932 245.279 46.5302V50.157H246.389V46.2288C246.389 45.4563 246.172 44.8534 245.749 44.42C245.326 43.9867 244.742 43.7606 243.999 43.7606C242.814 43.7795 242.014 44.2411 241.591 45.1454" fill="white"/>
</mask>
<g mask="url(#mask24_31_14442)">
<path d="M246.398 43.7697H240.48V50.1567H246.398V43.7697Z" fill="url(#paint24_linear_31_14442)"/>
</g>
<mask id="mask25_31_14442" style="mask-type:luminance" maskUnits="userSpaceOnUse" x="247" y="43" width="8" height="10">
<path d="M249.392 48.3763C249.015 47.9807 248.827 47.4626 248.818 46.8408C248.818 46.4263 248.902 46.0495 249.081 45.7292C249.26 45.3995 249.495 45.1546 249.806 44.9662C250.116 44.7778 250.464 44.693 250.859 44.693C251.254 44.693 251.602 44.7872 251.904 44.9662C252.205 45.1546 252.44 45.3995 252.619 45.7292C252.788 46.0495 252.873 46.4263 252.873 46.8408C252.873 47.2553 252.788 47.6133 252.619 47.943C252.449 48.2633 252.205 48.5177 251.904 48.7061C251.602 48.8945 251.254 48.9887 250.859 48.9887C250.257 48.9887 249.768 48.7908 249.401 48.3858M249.147 44.1749C248.714 44.4292 248.376 44.7872 248.131 45.2394C247.896 45.701 247.773 46.2191 247.773 46.8126C247.773 47.4061 247.896 47.943 248.131 48.414C248.376 48.8756 248.705 49.243 249.147 49.4974C249.58 49.7611 250.088 49.8836 250.652 49.8836C251.151 49.8836 251.584 49.78 251.969 49.5633C252.355 49.3466 252.656 49.0546 252.882 48.6684V49.5633C252.882 50.1756 252.684 50.6749 252.299 51.0423C251.904 51.4097 251.386 51.5981 250.728 51.5981C250.332 51.5981 249.956 51.5322 249.627 51.4097C249.288 51.2872 248.968 51.0988 248.658 50.8351L248.169 51.6546C248.978 52.2481 249.853 52.5401 250.784 52.5401C251.433 52.5401 251.998 52.4177 252.487 52.1728C252.976 51.9278 253.352 51.5793 253.616 51.1271C253.889 50.6655 254.02 50.138 254.02 49.5256V43.8169H252.891V44.985C252.666 44.5988 252.365 44.3068 251.988 44.0995C251.612 43.8923 251.17 43.7886 250.662 43.7886C250.097 43.7886 249.589 43.9205 249.156 44.1749" fill="white"/>
</mask>
<g mask="url(#mask25_31_14442)">
<path d="M254.001 43.7697H247.764V52.5306H254.001V43.7697Z" fill="url(#paint25_linear_31_14442)"/>
</g>
<mask id="mask26_31_14442" style="mask-type:luminance" maskUnits="userSpaceOnUse" x="258" y="43" width="7" height="8">
<path d="M263.119 43.807L261.228 49.0541L259.318 43.807H258.133L260.617 50.1657H261.774L264.248 43.807H263.119Z" fill="white"/>
</mask>
<g mask="url(#mask26_31_14442)">
<path d="M264.248 43.807H258.133V50.1563H264.248V43.807Z" fill="url(#paint26_linear_31_14442)"/>
</g>
<mask id="mask27_31_14442" style="mask-type:luminance" maskUnits="userSpaceOnUse" x="264" y="39" width="7" height="12">
<path d="M266.617 48.9699C266.297 48.7815 266.043 48.5177 265.865 48.1692C265.686 47.83 265.592 47.4344 265.592 46.9916C265.592 46.5489 265.686 46.1721 265.865 45.8329C266.043 45.4938 266.297 45.23 266.617 45.0322C266.937 44.8438 267.314 44.7402 267.727 44.7402C268.141 44.7402 268.499 44.8344 268.828 45.0322C269.158 45.2206 269.402 45.4938 269.581 45.8329C269.76 46.1721 269.854 46.5583 269.854 46.9916C269.854 47.425 269.76 47.83 269.581 48.1692C269.402 48.5177 269.148 48.7815 268.828 48.9699C268.508 49.1583 268.141 49.2525 267.727 49.2525C267.314 49.2525 266.947 49.1583 266.617 48.9699ZM266.034 44.1844C265.545 44.4575 265.159 44.8344 264.877 45.3242C264.604 45.8047 264.463 46.3605 264.463 46.9916C264.463 47.6228 264.604 48.1786 264.877 48.6685C265.15 49.1489 265.535 49.5351 266.034 49.7989C266.523 50.0721 267.088 50.204 267.727 50.204C268.367 50.204 268.922 50.0721 269.412 49.7989C269.901 49.5257 270.286 49.1489 270.559 48.659C270.832 48.1692 270.973 47.6134 270.973 46.9916C270.973 46.3699 270.832 45.8141 270.559 45.3242C270.286 44.8438 269.901 44.4575 269.412 44.1844C268.922 43.9112 268.358 43.7793 267.727 43.7793C267.097 43.7793 266.523 43.9206 266.034 44.1844ZM266.937 41.7351L265.667 42.8843H266.862L267.727 42.2155L268.584 42.8843H269.778L268.499 41.7351H266.937ZM266.89 41.0945L267.737 41.3583L269.402 40.4539L268.443 39.8039L266.881 41.0851L266.89 41.0945Z" fill="white"/>
</mask>
<g mask="url(#mask27_31_14442)">
<path d="M270.973 39.8129H264.463V50.2035H270.973V39.8129Z" fill="url(#paint27_linear_31_14442)"/>
</g>
<mask id="mask28_31_14442" style="mask-type:luminance" maskUnits="userSpaceOnUse" x="272" y="43" width="7" height="8">
<path d="M273.655 45.1548V43.8077H272.535V50.157H273.655V46.7563C273.702 46.1911 273.909 45.7201 274.257 45.3715C274.614 45.0135 275.075 44.8345 275.64 44.8251C276.167 44.8251 276.581 44.9758 276.882 45.2773C277.183 45.5787 277.333 45.9932 277.333 46.5302V50.157H278.453V46.2288C278.453 45.4563 278.236 44.8534 277.813 44.42C277.39 43.9867 276.806 43.7606 276.063 43.7606C274.878 43.7795 274.078 44.2411 273.655 45.1454" fill="white"/>
</mask>
<g mask="url(#mask28_31_14442)">
<path d="M278.453 43.7697H272.535V50.1567H278.453V43.7697Z" fill="url(#paint28_linear_31_14442)"/>
</g>
<mask id="mask29_31_14442" style="mask-type:luminance" maskUnits="userSpaceOnUse" x="282" y="43" width="7" height="8">
<path d="M284.483 44.1841C284.003 44.4573 283.627 44.8341 283.364 45.3239C283.091 45.8138 282.959 46.3696 282.959 46.9913C282.959 47.6131 283.091 48.1689 283.364 48.6587C283.627 49.1392 284.003 49.5254 284.483 49.7892C284.963 50.0624 285.509 50.1943 286.129 50.1943C286.685 50.1943 287.193 50.1001 287.635 49.9022C288.077 49.7138 288.444 49.4312 288.736 49.0732L288.096 48.4232C287.879 48.6776 287.607 48.8754 287.277 49.0073C286.948 49.1486 286.581 49.2145 286.177 49.2145C285.772 49.2145 285.405 49.1203 285.095 48.9319C284.775 48.7435 284.53 48.4798 284.351 48.1406C284.173 47.8015 284.079 47.4152 284.079 46.9725C284.079 46.5297 284.173 46.1435 284.351 45.8044C284.53 45.4652 284.784 45.2109 285.113 45.0225C285.443 44.8341 285.81 44.7493 286.224 44.7493C286.929 44.7493 287.531 44.9942 288.039 45.4841L288.651 44.7116C288.359 44.4007 288.002 44.1652 287.578 43.9957C287.155 43.8355 286.666 43.7507 286.129 43.7507C285.518 43.7507 284.963 43.892 284.483 44.1558" fill="white"/>
</mask>
<g mask="url(#mask29_31_14442)">
<path d="M288.726 43.7697H282.959V50.1944H288.726V43.7697Z" fill="url(#paint29_linear_31_14442)"/>
</g>
<mask id="mask30_31_14442" style="mask-type:luminance" maskUnits="userSpaceOnUse" x="290" y="40" width="6" height="11">
<path d="M294.814 43.8073V46.9255C294.814 47.5661 294.644 48.0936 294.296 48.5081C293.948 48.9226 293.478 49.1298 292.885 49.1393C292.377 49.1393 291.973 48.9885 291.681 48.6871C291.389 48.3856 291.248 47.9711 291.248 47.4342V43.8073H290.119V47.7356C290.119 48.5081 290.326 49.1016 290.74 49.5443C291.154 49.9777 291.728 50.1943 292.471 50.1943C293.628 50.1755 294.409 49.7139 294.823 48.8096V50.1567H295.952V43.8073H294.823H294.814ZM292.02 41.1414L292.386 41.7443C292.546 41.6407 292.706 41.5841 292.857 41.5841C292.97 41.5841 293.064 41.6218 293.139 41.6972C293.214 41.7725 293.261 41.8573 293.261 41.9609C293.261 42.0928 293.214 42.253 293.12 42.432C293.026 42.611 292.895 42.7805 292.735 42.9312L293.356 43.2233C293.61 43.0066 293.816 42.7711 293.976 42.4979C294.136 42.2341 294.221 41.9892 294.221 41.7631C294.221 41.4617 294.118 41.2262 293.892 41.0566C293.675 40.887 293.403 40.8022 293.073 40.8022C292.697 40.8022 292.339 40.9153 292.001 41.1414" fill="white"/>
</mask>
<g mask="url(#mask30_31_14442)">
<path d="M295.942 40.8113H290.109V50.2034H295.942V40.8113Z" fill="url(#paint30_linear_31_14442)"/>
</g>
<mask id="mask31_31_14442" style="mask-type:luminance" maskUnits="userSpaceOnUse" x="297" y="43" width="7" height="8">
<path d="M299 48.9981C298.755 48.8097 298.624 48.5459 298.624 48.2162C298.624 47.8865 298.746 47.651 298.991 47.5003C299.235 47.3495 299.611 47.2742 300.11 47.2742H301.973V47.9148C301.898 48.3292 301.681 48.6684 301.314 48.9133C300.947 49.1677 300.515 49.2901 299.988 49.2901C299.574 49.2901 299.235 49.1959 298.991 48.9981M299.188 43.9676C298.802 44.0995 298.379 44.3162 297.918 44.6082L298.388 45.3807C299.056 44.9285 299.706 44.693 300.345 44.693C300.872 44.693 301.277 44.8155 301.55 45.0604C301.822 45.3053 301.964 45.6539 301.964 46.0966V46.3981H299.95C299.198 46.3981 298.614 46.5771 298.191 46.9068C297.768 47.2365 297.561 47.6887 297.561 48.2539C297.561 48.6213 297.655 48.951 297.833 49.2524C298.012 49.5445 298.266 49.78 298.605 49.9496C298.934 50.1191 299.32 50.2039 299.762 50.2039C300.769 50.2039 301.512 49.893 301.982 49.2713V50.1568H303.083V45.9742C303.064 45.2771 302.838 44.7307 302.415 44.3444C301.982 43.9582 301.371 43.7604 300.581 43.7604C300.044 43.7604 299.583 43.8263 299.198 43.9582" fill="white"/>
</mask>
<g mask="url(#mask31_31_14442)">
<path d="M303.083 43.7697H297.57V50.2038H303.083V43.7697Z" fill="url(#paint31_linear_31_14442)"/>
</g>
<mask id="mask32_31_14442" style="mask-type:luminance" maskUnits="userSpaceOnUse" x="308" y="41" width="7" height="10">
<path d="M310.429 48.9414C310.11 48.7436 309.856 48.4798 309.667 48.1407C309.479 47.8015 309.395 47.4059 309.395 46.9725C309.395 46.5392 309.489 46.1624 309.667 45.8232C309.856 45.4841 310.11 45.2109 310.429 45.0131C310.759 44.8247 311.116 44.7305 311.53 44.7305C311.944 44.7305 312.302 44.8247 312.622 45.0131C312.941 45.2015 313.195 45.4747 313.374 45.8232C313.562 46.1718 313.647 46.5486 313.647 46.9725C313.647 47.3964 313.553 47.7921 313.374 48.1407C313.195 48.4798 312.941 48.753 312.622 48.9508C312.302 49.1392 311.935 49.2334 311.521 49.2334C311.107 49.2334 310.749 49.1392 310.42 48.9508M308.266 41.2638V50.1755H309.376V48.9131C309.611 49.3276 309.931 49.6479 310.335 49.874C310.74 50.1001 311.22 50.2131 311.747 50.2131C312.339 50.2131 312.866 50.0812 313.327 49.8081C313.788 49.5443 314.146 49.1675 314.4 48.6776C314.654 48.1972 314.776 47.6414 314.776 47.0102C314.776 46.379 314.644 45.8138 314.39 45.324C314.136 44.8341 313.769 44.4573 313.308 44.1841C312.847 43.9109 312.321 43.779 311.728 43.779C311.201 43.779 310.731 43.8921 310.335 44.1182C309.931 44.3442 309.611 44.6645 309.385 45.079V41.2638H308.275H308.266Z" fill="white"/>
</mask>
<g mask="url(#mask32_31_14442)">
<path d="M314.796 41.2548H308.285V50.2041H314.796V41.2548Z" fill="url(#paint32_linear_31_14442)"/>
</g>
<mask id="mask33_31_14442" style="mask-type:luminance" maskUnits="userSpaceOnUse" x="315" y="43" width="7" height="10">
<path d="M318.183 51.259C318.052 51.4003 317.986 51.5699 317.986 51.7771C317.986 51.9844 318.052 52.1539 318.183 52.2952C318.315 52.4271 318.484 52.5025 318.682 52.5025C318.88 52.5025 319.049 52.4365 319.181 52.2952C319.312 52.1633 319.378 51.9844 319.378 51.7771C319.378 51.5699 319.312 51.4003 319.181 51.259C319.049 51.1271 318.88 51.0517 318.682 51.0517C318.484 51.0517 318.315 51.1177 318.183 51.259ZM317.243 48.9981C316.998 48.8097 316.866 48.5459 316.866 48.2162C316.866 47.8865 316.988 47.651 317.233 47.5003C317.478 47.3495 317.854 47.2742 318.353 47.2742H320.215V47.9148C320.14 48.3292 319.924 48.6684 319.557 48.9133C319.19 49.1677 318.748 49.2901 318.23 49.2901C317.816 49.2901 317.478 49.1959 317.233 48.9981M317.431 43.9676C317.045 44.0995 316.622 44.3162 316.17 44.6082L316.64 45.3807C317.308 44.9285 317.958 44.693 318.597 44.693C319.124 44.693 319.529 44.8155 319.801 45.0604C320.074 45.3053 320.215 45.6539 320.215 46.0966V46.3981H318.202C317.449 46.3981 316.866 46.5771 316.443 46.9068C316.019 47.2365 315.812 47.6887 315.812 48.2539C315.812 48.6213 315.907 48.951 316.085 49.2524C316.264 49.5445 316.518 49.78 316.857 49.9496C317.186 50.1191 317.572 50.2039 318.014 50.2039C319.021 50.2039 319.764 49.893 320.234 49.2713V50.1568H321.335V45.9742C321.316 45.2771 321.1 44.7307 320.667 44.3444C320.234 43.9582 319.623 43.7604 318.832 43.7604C318.296 43.7604 317.835 43.8263 317.449 43.9582" fill="white"/>
</mask>
<g mask="url(#mask33_31_14442)">
<path d="M321.326 43.7698H315.812V52.4931H321.326V43.7698Z" fill="url(#paint33_linear_31_14442)"/>
</g>
<mask id="mask34_31_14442" style="mask-type:luminance" maskUnits="userSpaceOnUse" x="323" y="43" width="7" height="8">
<path d="M324.44 45.1548V43.8077H323.32V50.157H324.44V46.7563C324.487 46.1911 324.694 45.7201 325.042 45.3715C325.4 45.0135 325.86 44.8345 326.425 44.8251C326.952 44.8251 327.366 44.9758 327.667 45.2773C327.968 45.5787 328.118 45.9932 328.118 46.5302V50.157H329.238V46.2288C329.238 45.4563 329.022 44.8534 328.608 44.42C328.184 43.9867 327.601 43.7606 326.858 43.7606C325.672 43.7795 324.873 44.2411 324.449 45.1454" fill="white"/>
</mask>
<g mask="url(#mask34_31_14442)">
<path d="M329.248 43.7698H323.33V50.1568H329.248V43.7698Z" fill="url(#paint34_linear_31_14442)"/>
</g>
<path d="M255.281 19.239H258.357L265.187 34.905H262.882C262.638 34.905 262.412 34.8767 262.186 34.8108C261.96 34.7449 261.753 34.6601 261.565 34.5376C261.377 34.4151 261.208 34.2738 261.048 34.1043C260.897 33.9347 260.775 33.7369 260.681 33.5202L259.919 31.7774H253.691L252.947 33.5202C252.863 33.718 252.74 33.897 252.581 34.0666C252.421 34.2362 252.251 34.3775 252.054 34.5094C251.856 34.6412 251.649 34.7354 251.423 34.8014C251.198 34.8673 250.972 34.905 250.746 34.905H248.432L255.262 19.239H255.281ZM255.14 28.5274H258.479L257.115 25.2491C257.049 25.0984 257.002 24.9571 256.965 24.8252C256.927 24.6933 256.899 24.5803 256.88 24.4767C256.852 24.3636 256.833 24.2506 256.824 24.147C256.805 24.2506 256.786 24.3636 256.758 24.4861C256.739 24.5897 256.701 24.7028 256.664 24.8346C256.626 24.9665 256.57 25.1078 256.513 25.2491L255.14 28.5274Z" fill="white"/>
<path d="M279.224 26.116V32.927C278.811 33.3603 278.359 33.7089 277.889 33.982C277.409 34.2552 276.919 34.4719 276.402 34.6226C275.885 34.7828 275.358 34.8864 274.812 34.9523C274.266 35.0183 273.721 35.0465 273.166 35.0465C272.432 35.0465 271.717 34.9523 271.039 34.7639C270.353 34.5755 269.713 34.3023 269.12 33.9632C268.528 33.6147 267.982 33.2002 267.493 32.7197C267.003 32.2393 266.58 31.7023 266.241 31.1088C265.893 30.5154 265.63 29.8842 265.432 29.2059C265.244 28.5277 265.141 27.8117 265.141 27.0769C265.141 26.3421 265.235 25.6356 265.432 24.9479C265.63 24.2697 265.893 23.6291 266.241 23.045C266.589 22.4515 267.003 21.9146 267.493 21.4341C267.982 20.9443 268.528 20.5298 269.12 20.1906C269.713 19.8421 270.353 19.5783 271.039 19.3899C271.726 19.2015 272.432 19.1073 273.166 19.1073C273.749 19.1073 274.323 19.1827 274.897 19.324C275.471 19.4653 276.035 19.6725 276.571 19.9363C277.117 20.2001 277.635 20.5298 278.143 20.916C278.651 21.3022 279.121 21.7356 279.563 22.216L278.66 23.1581C278.208 23.6291 277.635 23.874 276.948 23.874C276.459 23.874 276.016 23.7421 275.631 23.4689C275.264 23.224 274.878 23.0356 274.464 22.8943C274.05 22.753 273.617 22.6776 273.156 22.6776C272.554 22.6776 271.98 22.7907 271.444 23.0262C270.908 23.2617 270.437 23.5725 270.033 23.9682C269.628 24.3639 269.308 24.8349 269.064 25.3718C268.819 25.9088 268.706 26.474 268.706 27.0863C268.706 27.6987 268.829 28.311 269.083 28.8479C269.337 29.3849 269.666 29.8559 270.089 30.2422C270.503 30.6284 270.992 30.9393 271.538 31.1654C272.084 31.3914 272.667 31.4951 273.269 31.4951C273.683 31.4951 274.097 31.4574 274.511 31.3726C274.925 31.2972 275.301 31.1748 275.64 31.0146V29.5074C275.292 29.5074 274.972 29.4414 274.68 29.3378C274.389 29.2248 274.144 29.0835 273.937 28.8951C273.73 28.7066 273.57 28.49 273.448 28.2356C273.335 27.9813 273.279 27.7081 273.279 27.3972V26.1443H279.224V26.116Z" fill="white"/>
<path d="M286.413 34.905H282.838V19.239H288.972C289.565 19.239 290.11 19.3143 290.6 19.465C291.098 19.6158 291.55 19.823 291.954 20.0868C292.359 20.3506 292.716 20.652 293.027 21.01C293.337 21.368 293.591 21.7448 293.798 22.1498C294.005 22.5549 294.165 22.9694 294.269 23.4028C294.372 23.8361 294.429 24.26 294.429 24.6839C294.429 25.1078 294.382 25.5129 294.297 25.9274C294.203 26.3419 294.062 26.747 293.864 27.1332C293.667 27.5289 293.413 27.9057 293.102 28.2637C292.792 28.6216 292.406 28.9608 291.964 29.2716L296.131 34.9144H293.083C293.017 34.9144 292.904 34.905 292.754 34.8767C292.594 34.8579 292.425 34.8014 292.227 34.726C292.03 34.6507 291.823 34.5282 291.606 34.368C291.39 34.2079 291.183 33.9818 290.985 33.6992L288.36 30.1477H286.404V34.9144L286.413 34.905ZM289.16 26.5397C289.376 26.5397 289.593 26.4832 289.79 26.3796C289.997 26.276 290.176 26.1252 290.336 25.9557C290.496 25.7861 290.618 25.5883 290.712 25.3622C290.806 25.1361 290.854 24.9194 290.854 24.6933C290.854 24.4673 290.806 24.2412 290.712 24.0245C290.618 23.7984 290.496 23.6006 290.336 23.431C290.176 23.252 289.997 23.1107 289.79 23.0071C289.583 22.8941 289.376 22.8469 289.16 22.8469H286.413V26.5586H289.16V26.5397Z" fill="white"/>
<path d="M302.03 19.239H298.445V34.905H302.03V19.239Z" fill="white"/>
<path d="M309.01 34.905H306.197V19.239H313.122C313.78 19.239 314.41 19.3614 314.994 19.6158C315.577 19.8607 316.095 20.1998 316.527 20.6332C316.96 21.0665 317.308 21.5658 317.562 22.1498C317.807 22.7339 317.938 23.3462 317.938 24.0057C317.938 24.2035 317.901 24.439 317.835 24.7122C317.769 24.9854 317.666 25.2586 317.543 25.5129C317.421 25.7673 317.271 26.0028 317.092 26.2006C316.913 26.3984 316.715 26.5209 316.48 26.568C316.791 26.6057 317.064 26.7376 317.327 26.9636C317.581 27.1897 317.807 27.4818 317.995 27.8209C318.183 28.16 318.334 28.5274 318.447 28.9231C318.559 29.3187 318.606 29.6955 318.606 30.0535C318.606 30.7318 318.475 31.363 318.221 31.9564C317.967 32.5499 317.609 33.0586 317.167 33.5014C316.725 33.9347 316.198 34.2833 315.605 34.5376C315.003 34.792 314.373 34.9144 313.695 34.9144H309.01V34.905ZM309.763 22.8187V25.1832H313.244C313.394 25.1832 313.545 25.1549 313.677 25.089C313.818 25.0231 313.931 24.9477 314.034 24.8346C314.138 24.731 314.213 24.6086 314.279 24.4673C314.335 24.3259 314.363 24.1752 314.363 24.0151C314.363 23.8549 314.335 23.7042 314.279 23.5535C314.222 23.4122 314.138 23.2803 314.034 23.1672C313.931 23.0542 313.808 22.9694 313.677 22.9129C313.536 22.8469 313.394 22.8187 313.244 22.8187H309.763ZM313.827 31.3347C313.997 31.3347 314.147 31.297 314.298 31.2311C314.439 31.1557 314.57 31.0615 314.683 30.9485C314.796 30.826 314.881 30.6941 314.947 30.534C315.013 30.3738 315.041 30.2137 315.041 30.0347C315.041 29.8557 315.013 29.6955 314.947 29.5448C314.881 29.3941 314.796 29.2622 314.693 29.1492C314.589 29.0361 314.458 28.9419 314.316 28.876C314.166 28.81 314.015 28.7724 313.846 28.7724H309.772V31.3441H313.837L313.827 31.3347Z" fill="white"/>
<path d="M326.236 19.239H329.312L336.142 34.905H333.837C333.593 34.905 333.367 34.8767 333.141 34.8108C332.915 34.7449 332.708 34.6601 332.52 34.5376C332.332 34.4151 332.163 34.2738 332.003 34.1043C331.852 33.9347 331.73 33.7369 331.636 33.5202L330.874 31.7774H324.646L323.903 33.5202C323.818 33.718 323.696 33.897 323.536 34.0666C323.376 34.2362 323.206 34.3775 323.009 34.5094C322.811 34.6412 322.604 34.7354 322.378 34.8014C322.153 34.8673 321.927 34.905 321.701 34.905H319.387L326.217 19.239H326.236ZM326.095 28.5274H329.434L328.07 25.2491C328.004 25.0984 327.957 24.9571 327.92 24.8252C327.882 24.6933 327.854 24.5803 327.835 24.4767C327.807 24.3636 327.788 24.2506 327.779 24.147C327.76 24.2506 327.741 24.3636 327.713 24.4861C327.694 24.5897 327.666 24.7028 327.619 24.8346C327.581 24.9665 327.525 25.1078 327.468 25.2491L326.095 28.5274Z" fill="white"/>
<path d="M352.278 34.905H348.731L341.252 24.0716V34.905H337.695V19.239H341.214C341.562 19.239 341.872 19.2861 342.145 19.3897C342.418 19.4933 342.625 19.644 342.766 19.8607L348.232 27.8868C348.317 27.9999 348.383 28.1318 348.439 28.2731C348.496 28.4144 348.552 28.5368 348.59 28.6593C348.637 28.7818 348.665 28.8854 348.684 28.9702C348.703 29.055 348.722 29.1115 348.722 29.1303V19.239H352.278V34.905Z" fill="white"/>
<path d="M359.898 34.905H356.332V19.239H359.898V34.905ZM361.403 26.1723L365.166 20.4542C365.27 20.3035 365.383 20.1527 365.524 20.002C365.665 19.8607 365.806 19.7288 365.975 19.6158C366.135 19.5027 366.305 19.4085 366.483 19.3426C366.662 19.2766 366.841 19.239 367.038 19.239H370.247L365.552 26.3796C365.448 26.5209 365.336 26.6339 365.194 26.7187C365.063 26.7941 364.978 26.8412 364.95 26.8506C364.95 26.8506 364.987 26.86 365.034 26.8883C365.082 26.9071 365.138 26.9448 365.194 26.9825C365.251 27.0202 365.317 27.0767 365.383 27.1332C365.448 27.1992 365.505 27.2651 365.552 27.331L370.576 34.905H367.368C366.935 34.905 366.577 34.792 366.286 34.5753C365.994 34.3492 365.721 34.0572 365.477 33.6709L361.403 27.5383C361.318 27.4158 361.234 27.3122 361.14 27.218C361.045 27.1332 360.951 27.0578 360.876 27.0107C360.791 26.9636 360.716 26.9165 360.66 26.8977C360.603 26.8694 360.566 26.86 360.556 26.8506C360.556 26.8506 360.594 26.8412 360.66 26.8223C360.716 26.8035 360.791 26.7658 360.876 26.7093C360.961 26.6622 361.045 26.5868 361.14 26.502C361.234 26.4173 361.318 26.3042 361.403 26.1723Z" fill="white"/>
<path d="M74.609 27.0863C74.609 27.6892 74.7313 28.2544 74.9665 28.7913C75.2111 29.3283 75.531 29.7899 75.9355 30.195C76.3401 30.5906 76.8105 30.9109 77.3561 31.137C77.8924 31.3631 78.4663 31.4761 79.0684 31.4761C79.5294 31.4761 79.9716 31.4008 80.3855 31.2595C80.7901 31.1182 81.1758 30.9298 81.5333 30.6848C81.919 30.4211 82.3518 30.2892 82.841 30.2892C83.2173 30.2892 83.5372 30.3457 83.81 30.4682C84.0829 30.5906 84.3275 30.7602 84.5533 30.9863L85.4753 31.9189C85.0237 32.3993 84.5439 32.8327 84.0452 33.2189C83.5372 33.6051 83.0198 33.9349 82.4741 34.1986C81.9284 34.4718 81.3734 34.6696 80.7995 34.8204C80.2256 34.9617 79.6517 35.037 79.0684 35.037C78.3346 35.037 77.629 34.9428 76.9422 34.7544C76.2554 34.566 75.6156 34.3023 75.0229 33.9537C74.4302 33.6051 73.8846 33.1906 73.4047 32.7102C72.9155 32.2298 72.5016 31.6928 72.1535 31.0993C71.8054 30.5058 71.5325 29.8747 71.3444 29.1964C71.1468 28.5182 71.0527 27.8116 71.0527 27.0768C71.0527 26.3421 71.1468 25.6355 71.3444 24.9573C71.542 24.279 71.8054 23.6478 72.1535 23.0543C72.5016 22.4609 72.9155 21.9239 73.4047 21.4435C73.894 20.963 74.4302 20.5485 75.0229 20.2C75.6156 19.8514 76.2554 19.5877 76.9422 19.3992C77.6195 19.2108 78.3346 19.1166 79.0684 19.1166C79.6517 19.1166 80.2256 19.192 80.7995 19.3333C81.3734 19.4746 81.9284 19.6913 82.4741 19.955C83.0103 20.2282 83.5372 20.5485 84.0452 20.9348C84.5533 21.321 85.0237 21.7543 85.4753 22.2348L84.5533 23.1674C84.3369 23.3841 84.0829 23.563 83.8006 23.6855C83.5184 23.808 83.1985 23.8739 82.841 23.8739C82.3612 23.8739 81.9284 23.742 81.5333 23.4688C81.1664 23.2239 80.7806 23.0261 80.3761 22.8942C79.9621 22.7529 79.5294 22.687 79.0778 22.687C78.4757 22.687 77.9018 22.8 77.3655 23.0355C76.8293 23.271 76.3589 23.5819 75.9449 23.9775C75.5404 24.3732 75.2111 24.8348 74.9759 25.3718C74.7407 25.9087 74.6184 26.4739 74.6184 27.0768" fill="white"/>
<path d="M101.872 34.9053H98.3161V28.7161H91.373V34.9053H87.8262V19.2675H91.373V25.3813H98.3161V19.2675H101.872V34.9053Z" fill="white"/>
<path d="M108.59 28.6124C108.59 29.008 108.665 29.3754 108.825 29.724C108.985 30.0725 109.201 30.374 109.465 30.6377C109.738 30.9015 110.048 31.1088 110.396 31.2595C110.744 31.4102 111.121 31.4856 111.516 31.4856C111.911 31.4856 112.278 31.4102 112.635 31.2595C112.993 31.1088 113.303 30.9015 113.576 30.6377C113.849 30.374 114.065 30.0725 114.225 29.724C114.385 29.3754 114.47 28.9986 114.47 28.6124V19.2768H118.035V28.6124C118.035 29.5073 117.866 30.3457 117.527 31.1276C117.189 31.9095 116.718 32.5878 116.135 33.1718C115.552 33.7559 114.856 34.2175 114.075 34.5472C113.284 34.8863 112.438 35.0559 111.544 35.0559C110.951 35.0559 110.377 34.9805 109.822 34.8298C109.267 34.6791 108.759 34.4624 108.279 34.1798C107.8 33.8972 107.357 33.5675 106.962 33.1718C106.567 32.7762 106.219 32.3428 105.937 31.8718C105.654 31.3914 105.438 30.8827 105.278 30.3363C105.118 29.7899 105.043 29.2153 105.043 28.6218V19.2862H108.618V28.6218L108.59 28.6124Z" fill="white"/>
<path d="M135.611 34.9052H132.073L124.613 24.1V34.9052H121.057V19.2768H124.566C124.914 19.2768 125.224 19.3333 125.488 19.4275C125.761 19.5311 125.968 19.6913 126.109 19.8985L131.565 27.9058C131.641 28.0189 131.716 28.1508 131.772 28.2921C131.829 28.4334 131.885 28.5558 131.923 28.6783C131.97 28.8008 131.998 28.9044 132.017 28.9892C132.036 29.074 132.055 29.1305 132.055 29.1493V19.2768H135.601V34.9052H135.611Z" fill="white"/>
<path d="M152.15 26.1347V32.9267C151.736 33.3507 151.294 33.7086 150.814 33.9818C150.334 34.255 149.845 34.4717 149.327 34.6224C148.81 34.7826 148.283 34.8862 147.747 34.9521C147.21 35.0181 146.655 35.0463 146.11 35.0463C145.376 35.0463 144.67 34.9521 143.984 34.7637C143.297 34.5753 142.666 34.3115 142.074 33.963C141.481 33.6144 140.945 33.1999 140.456 32.7195C139.966 32.2391 139.543 31.7021 139.204 31.1086C138.856 30.5151 138.593 29.884 138.395 29.2057C138.207 28.5274 138.104 27.8209 138.104 27.0861C138.104 26.3513 138.198 25.6448 138.395 24.9665C138.593 24.2883 138.856 23.6477 139.204 23.0636C139.552 22.4796 139.966 21.9426 140.456 21.4527C140.945 20.9723 141.49 20.5578 142.074 20.2093C142.666 19.8607 143.306 19.5969 143.984 19.4085C144.67 19.2201 145.376 19.1259 146.11 19.1259C146.693 19.1259 147.267 19.2013 147.841 19.3426C148.415 19.4839 148.97 19.6911 149.515 19.9549C150.061 20.2187 150.579 20.5484 151.087 20.9346C151.595 21.3209 152.065 21.7542 152.507 22.2346L151.604 23.1767C151.152 23.6477 150.588 23.8832 149.892 23.8832C149.403 23.8832 148.96 23.7513 148.575 23.4781C148.208 23.2426 147.822 23.0448 147.417 22.9035C147.004 22.7622 146.571 22.6868 146.119 22.6868C145.517 22.6868 144.943 22.7999 144.407 23.0354C143.871 23.2709 143.4 23.5817 142.996 23.9774C142.591 24.3731 142.271 24.8441 142.036 25.3716C141.801 25.9086 141.679 26.4738 141.679 27.0767C141.679 27.6796 141.801 28.2919 142.055 28.8289C142.309 29.3658 142.638 29.8274 143.052 30.2231C143.466 30.6093 143.955 30.9202 144.501 31.1369C145.047 31.363 145.63 31.4666 146.232 31.4666C146.646 31.4666 147.06 31.4289 147.474 31.3441C147.888 31.2688 148.264 31.1463 148.593 30.9861V29.4789C148.245 29.4789 147.926 29.4129 147.634 29.3093C147.342 29.2057 147.098 29.055 146.891 28.8666C146.684 28.6782 146.524 28.4615 146.401 28.2071C146.289 27.9528 146.223 27.6796 146.223 27.3687V26.1158H152.159L152.15 26.1347Z" fill="white"/>
<path d="M165.114 34.9052H161.549V19.2768H165.114V34.9052ZM166.62 26.1913L170.374 20.492C170.477 20.3413 170.59 20.1906 170.731 20.0493C170.863 19.8985 171.013 19.7761 171.183 19.663C171.343 19.55 171.512 19.4558 171.691 19.3898C171.869 19.3145 172.048 19.2862 172.236 19.2862H175.435L170.75 26.408C170.646 26.5493 170.533 26.6624 170.392 26.7471C170.261 26.8225 170.176 26.8696 170.148 26.879C170.148 26.879 170.185 26.8884 170.232 26.9167C170.279 26.9355 170.336 26.9732 170.392 27.0109C170.449 27.0486 170.515 27.1051 170.581 27.1616C170.646 27.2276 170.703 27.2935 170.75 27.3689L175.764 34.924H172.566C172.133 34.924 171.775 34.811 171.484 34.5943C171.192 34.3682 170.919 34.0762 170.675 33.6994L166.61 27.5761C166.526 27.4537 166.441 27.35 166.347 27.2653C166.253 27.1805 166.159 27.1051 166.083 27.058C165.999 27.0109 165.933 26.9638 165.867 26.945C165.811 26.9167 165.773 26.9073 165.764 26.8979C165.764 26.8979 165.801 26.8884 165.867 26.8696C165.924 26.8508 165.999 26.8131 166.083 26.7566C166.168 26.7095 166.253 26.6341 166.347 26.5493C166.441 26.4645 166.526 26.3515 166.61 26.2196" fill="white"/>
<path d="M191.458 34.9053H187.892V28.7161H180.959V34.9053H177.402V19.2675H180.959V25.3813H187.892V19.2675H191.458V34.9053Z" fill="white"/>
<path d="M193.912 27.0861C193.912 26.3513 194.006 25.6448 194.204 24.9665C194.392 24.2883 194.665 23.6571 195.013 23.0636C195.361 22.4796 195.775 21.9332 196.264 21.4527C196.753 20.9723 197.29 20.5578 197.892 20.2093C198.484 19.8607 199.124 19.5969 199.811 19.4085C200.488 19.2201 201.203 19.1259 201.937 19.1259C202.671 19.1259 203.377 19.2201 204.063 19.4085C204.75 19.5969 205.381 19.8607 205.983 20.2093C206.575 20.5578 207.121 20.9723 207.61 21.4527C208.099 21.9332 208.513 22.4701 208.861 23.0636C209.21 23.6571 209.482 24.2883 209.671 24.9665C209.868 25.6448 209.962 26.3513 209.962 27.0861C209.962 27.8209 209.868 28.5274 209.671 29.2057C209.482 29.884 209.21 30.5245 208.861 31.1086C208.513 31.6927 208.09 32.2391 207.61 32.7195C207.121 33.1999 206.585 33.6238 205.983 33.963C205.39 34.3115 204.75 34.5753 204.063 34.7637C203.377 34.9521 202.671 35.0463 201.937 35.0463C201.203 35.0463 200.488 34.9521 199.811 34.7637C199.134 34.5753 198.494 34.3115 197.901 33.963C197.308 33.6144 196.763 33.1999 196.274 32.7195C195.784 32.2391 195.37 31.7021 195.022 31.1086C194.674 30.5151 194.401 29.884 194.213 29.2057C194.016 28.5274 193.922 27.8209 193.922 27.0861M197.487 27.0861C197.487 27.689 197.609 28.2542 197.845 28.7912C198.08 29.3282 198.409 29.7898 198.814 30.1948C199.218 30.5905 199.689 30.9108 200.234 31.1369C200.771 31.363 201.344 31.476 201.947 31.476C202.549 31.476 203.113 31.363 203.649 31.1369C204.186 30.9108 204.665 30.5905 205.07 30.1948C205.475 29.7898 205.794 29.3282 206.039 28.7912C206.274 28.2542 206.397 27.689 206.397 27.0861C206.397 26.4832 206.274 25.918 206.039 25.381C205.794 24.8441 205.475 24.3825 205.07 23.9868C204.665 23.5912 204.186 23.2709 203.649 23.0448C203.104 22.8093 202.539 22.6962 201.947 22.6962C201.354 22.6962 200.771 22.8093 200.234 23.0448C199.698 23.2803 199.228 23.5912 198.814 23.9868C198.409 24.3825 198.08 24.8441 197.845 25.381C197.6 25.918 197.487 26.4832 197.487 27.0861Z" fill="white"/>
<path d="M215.785 19.7302H218.852L225.673 35.3586H223.378C223.133 35.3586 222.907 35.3303 222.681 35.2644C222.456 35.2079 222.258 35.1137 222.07 34.9912C221.882 34.8687 221.712 34.7274 221.552 34.5579C221.402 34.3883 221.28 34.1905 221.186 33.9738L220.423 32.2405H214.214L213.471 33.9738C213.386 34.1716 213.264 34.3506 213.104 34.5202C212.944 34.6898 212.775 34.8405 212.577 34.9629C212.38 35.0948 212.173 35.189 211.947 35.255C211.721 35.3209 211.495 35.3586 211.269 35.3586H208.955L215.776 19.7302H215.785ZM215.644 28.9999H218.975L217.61 25.731C217.545 25.5803 217.498 25.439 217.46 25.3071C217.422 25.1752 217.394 25.0621 217.375 24.9585C217.347 24.8455 217.328 24.7324 217.319 24.6288C217.309 24.7324 217.281 24.8455 217.253 24.9679C217.234 25.0716 217.197 25.1846 217.159 25.3165C217.121 25.4484 217.074 25.5897 217.008 25.731L215.635 28.9999H215.644Z" fill="white"/>
<path d="M241.771 34.9052H238.234L230.773 24.1V34.9052H227.227V19.2768H230.736C231.084 19.2768 231.394 19.3333 231.658 19.4275C231.931 19.5311 232.138 19.6913 232.279 19.8985L237.735 27.9058C237.811 28.0189 237.886 28.1508 237.942 28.2921C237.999 28.4334 238.046 28.5558 238.093 28.6783C238.14 28.8008 238.168 28.9044 238.187 28.9892C238.206 29.074 238.225 29.1305 238.225 29.1493V19.2768H241.771V34.9052Z" fill="white"/>
<path d="M119.203 17.9862C119.203 18.297 119.156 18.5702 119.062 18.7963C118.968 19.0224 118.845 19.2108 118.695 19.3615C118.544 19.5123 118.366 19.6159 118.178 19.6818C117.98 19.7478 117.792 19.7854 117.594 19.7854V19.3615C117.801 19.3615 117.999 19.2956 118.178 19.1543C118.356 19.013 118.46 18.8246 118.497 18.5891C118.479 18.5891 118.45 18.6079 118.413 18.6079C118.384 18.6079 118.356 18.6267 118.319 18.6267C118.281 18.6267 118.243 18.6362 118.196 18.6362C117.952 18.6362 117.754 18.542 117.594 18.363C117.434 18.184 117.35 17.9767 117.35 17.7318C117.35 17.4869 117.434 17.2796 117.594 17.1006C117.754 16.9217 117.971 16.8275 118.243 16.8275C118.544 16.8275 118.78 16.9405 118.949 17.1666C119.118 17.3927 119.203 17.6564 119.203 17.9673" fill="white"/>
<path d="M110.812 18.3159L110.586 17.892L113.822 14.7833L114.622 16.3282L110.812 18.3159Z" fill="white"/>
<path d="M216.98 17.6565L216.754 17.2232L219.99 14.1239L220.79 15.6688L216.98 17.6565Z" fill="white"/>
<defs>
<linearGradient id="paint0_linear_31_14442" x1="33.8522" y1="14.7083" x2="26.0738" y2="67.7031" gradientUnits="userSpaceOnUse">
<stop stop-color="#FAAF43"/>
<stop offset="1" stop-color="#F15B2A"/>
</linearGradient>
<linearGradient id="paint1_linear_31_14442" x1="48.8088" y1="24.3435" x2="6.84333" y2="50.6747" gradientUnits="userSpaceOnUse">
<stop stop-color="#F48220"/>
<stop offset="1" stop-color="#FFC113"/>
</linearGradient>
<linearGradient id="paint2_linear_31_14442" x1="-1529.19" y1="1981.2" x2="-1545.51" y2="2001.48" gradientUnits="userSpaceOnUse">
<stop stop-color="#F48220"/>
<stop offset="1" stop-color="#FFC113"/>
</linearGradient>
<linearGradient id="paint3_linear_31_14442" x1="47.5131" y1="33.1732" x2="49.3072" y2="16.2172" gradientUnits="userSpaceOnUse">
<stop stop-color="#FAAF43"/>
<stop offset="1" stop-color="#F8EB30"/>
</linearGradient>
<linearGradient id="paint4_linear_31_14442" x1="673.216" y1="-1332.21" x2="679.728" y2="-1346.38" gradientUnits="userSpaceOnUse">
<stop stop-color="#FAAF43"/>
<stop offset="1" stop-color="#F8EB30"/>
</linearGradient>
<linearGradient id="paint5_linear_31_14442" x1="-578.44" y1="-1195.69" x2="-584.908" y2="-1208.47" gradientUnits="userSpaceOnUse">
<stop stop-color="#FAAF43"/>
<stop offset="1" stop-color="#F8EB30"/>
</linearGradient>
<linearGradient id="paint6_linear_31_14442" x1="1015.81" y1="-2507.99" x2="1025.97" y2="-2534.36" gradientUnits="userSpaceOnUse">
<stop stop-color="#F48220"/>
<stop offset="1" stop-color="#FFC113"/>
</linearGradient>
<linearGradient id="paint7_linear_31_14442" x1="107.549" y1="47.9882" x2="115.066" y2="47.9882" gradientUnits="userSpaceOnUse">
<stop stop-color="#FEBB19"/>
<stop offset="1" stop-color="#FEC015"/>
</linearGradient>
<linearGradient id="paint8_linear_31_14442" x1="116.096" y1="44.9699" x2="122.023" y2="44.9699" gradientUnits="userSpaceOnUse">
<stop stop-color="#FEBB19"/>
<stop offset="1" stop-color="#FEC015"/>
</linearGradient>
<linearGradient id="paint9_linear_31_14442" x1="123.177" y1="43.4556" x2="128.7" y2="43.4556" gradientUnits="userSpaceOnUse">
<stop stop-color="#FEBB19"/>
<stop offset="1" stop-color="#FEC015"/>
</linearGradient>
<linearGradient id="paint10_linear_31_14442" x1="130.674" y1="44.6797" x2="141.211" y2="44.6797" gradientUnits="userSpaceOnUse">
<stop stop-color="#FEBB19"/>
<stop offset="1" stop-color="#FEC015"/>
</linearGradient>
<linearGradient id="paint11_linear_31_14442" x1="146.435" y1="43.5665" x2="147.555" y2="43.5665" gradientUnits="userSpaceOnUse">
<stop stop-color="#FEBB19"/>
<stop offset="1" stop-color="#FEC015"/>
</linearGradient>
<linearGradient id="paint12_linear_31_14442" x1="149.898" y1="48.589" x2="156.408" y2="48.589" gradientUnits="userSpaceOnUse">
<stop stop-color="#FEBB19"/>
<stop offset="1" stop-color="#FEC015"/>
</linearGradient>
<linearGradient id="paint13_linear_31_14442" x1="160.219" y1="48.3323" x2="166.457" y2="48.3323" gradientUnits="userSpaceOnUse">
<stop stop-color="#FEBB19"/>
<stop offset="1" stop-color="#FEC015"/>
</linearGradient>
<linearGradient id="paint14_linear_31_14442" x1="168.225" y1="45.264" x2="169.618" y2="45.264" gradientUnits="userSpaceOnUse">
<stop stop-color="#FEBB19"/>
<stop offset="1" stop-color="#FEC015"/>
</linearGradient>
<linearGradient id="paint15_linear_31_14442" x1="171.216" y1="47.4975" x2="177.369" y2="47.4975" gradientUnits="userSpaceOnUse">
<stop stop-color="#FEBB19"/>
<stop offset="1" stop-color="#FEC015"/>
</linearGradient>
<linearGradient id="paint16_linear_31_14442" x1="178.482" y1="48.589" x2="184.992" y2="48.589" gradientUnits="userSpaceOnUse">
<stop stop-color="#FEBB19"/>
<stop offset="1" stop-color="#FEC015"/>
</linearGradient>
<linearGradient id="paint17_linear_31_14442" x1="188.281" y1="44.0155" x2="192.364" y2="44.0155" gradientUnits="userSpaceOnUse">
<stop stop-color="#FEBB19"/>
<stop offset="1" stop-color="#FEC015"/>
</linearGradient>
<linearGradient id="paint18_linear_31_14442" x1="194.432" y1="48.3898" x2="197.8" y2="48.3898" gradientUnits="userSpaceOnUse">
<stop stop-color="#FEBB19"/>
<stop offset="1" stop-color="#FEC015"/>
</linearGradient>
<linearGradient id="paint19_linear_31_14442" x1="198.425" y1="46.6012" x2="204.935" y2="46.6012" gradientUnits="userSpaceOnUse">
<stop stop-color="#FEBB19"/>
<stop offset="1" stop-color="#FEC015"/>
</linearGradient>
<linearGradient id="paint20_linear_31_14442" x1="205.852" y1="45.2886" x2="211.77" y2="45.2886" gradientUnits="userSpaceOnUse">
<stop stop-color="#FEBB19"/>
<stop offset="1" stop-color="#FEC015"/>
</linearGradient>
<linearGradient id="paint21_linear_31_14442" x1="213.497" y1="48.3324" x2="219.734" y2="48.3324" gradientUnits="userSpaceOnUse">
<stop stop-color="#FEBB19"/>
<stop offset="1" stop-color="#FEC015"/>
</linearGradient>
<linearGradient id="paint22_linear_31_14442" x1="224.246" y1="45.6805" x2="231.659" y2="45.6805" gradientUnits="userSpaceOnUse">
<stop stop-color="#FEBB19"/>
<stop offset="1" stop-color="#FEC015"/>
</linearGradient>
<linearGradient id="paint23_linear_31_14442" x1="232.718" y1="46.6012" x2="239.228" y2="46.6012" gradientUnits="userSpaceOnUse">
<stop stop-color="#FEBB19"/>
<stop offset="1" stop-color="#FEC015"/>
</linearGradient>
<linearGradient id="paint24_linear_31_14442" x1="240.153" y1="45.2885" x2="246.07" y2="45.2885" gradientUnits="userSpaceOnUse">
<stop stop-color="#FEBB19"/>
<stop offset="1" stop-color="#FEC015"/>
</linearGradient>
<linearGradient id="paint25_linear_31_14442" x1="247.797" y1="48.3323" x2="254.035" y2="48.3323" gradientUnits="userSpaceOnUse">
<stop stop-color="#FEBB19"/>
<stop offset="1" stop-color="#FEC015"/>
</linearGradient>
<linearGradient id="paint26_linear_31_14442" x1="258.377" y1="48.2628" x2="264.493" y2="48.2628" gradientUnits="userSpaceOnUse">
<stop stop-color="#FEBB19"/>
<stop offset="1" stop-color="#FEC015"/>
</linearGradient>
<linearGradient id="paint27_linear_31_14442" x1="264.771" y1="46.6008" x2="271.281" y2="46.6008" gradientUnits="userSpaceOnUse">
<stop stop-color="#FEBB19"/>
<stop offset="1" stop-color="#FEC015"/>
</linearGradient>
<linearGradient id="paint28_linear_31_14442" x1="272.207" y1="45.2885" x2="278.125" y2="45.2885" gradientUnits="userSpaceOnUse">
<stop stop-color="#FEBB19"/>
<stop offset="1" stop-color="#FEC015"/>
</linearGradient>
<linearGradient id="paint29_linear_31_14442" x1="283.228" y1="48.3795" x2="288.995" y2="48.3795" gradientUnits="userSpaceOnUse">
<stop stop-color="#FEBB19"/>
<stop offset="1" stop-color="#FEC015"/>
</linearGradient>
<linearGradient id="paint30_linear_31_14442" x1="289.838" y1="44.1517" x2="295.671" y2="44.1517" gradientUnits="userSpaceOnUse">
<stop stop-color="#FEBB19"/>
<stop offset="1" stop-color="#FEC015"/>
</linearGradient>
<linearGradient id="paint31_linear_31_14442" x1="297.123" y1="44.7274" x2="302.645" y2="44.7274" gradientUnits="userSpaceOnUse">
<stop stop-color="#FEBB19"/>
<stop offset="1" stop-color="#FEC015"/>
</linearGradient>
<linearGradient id="paint32_linear_31_14442" x1="308.593" y1="47.3267" x2="315.103" y2="47.3267" gradientUnits="userSpaceOnUse">
<stop stop-color="#FEBB19"/>
<stop offset="1" stop-color="#FEC015"/>
</linearGradient>
<linearGradient id="paint33_linear_31_14442" x1="315.365" y1="45.8674" x2="320.887" y2="45.8674" gradientUnits="userSpaceOnUse">
<stop stop-color="#FEBB19"/>
<stop offset="1" stop-color="#FEC015"/>
</linearGradient>
<linearGradient id="paint34_linear_31_14442" x1="322.993" y1="45.2886" x2="328.91" y2="45.2886" gradientUnits="userSpaceOnUse">
<stop stop-color="#FEBB19"/>
<stop offset="1" stop-color="#FEC015"/>
</linearGradient>
</defs>
</svg>
