<svg width="44" height="44" viewBox="0 0 44 44" fill="none" xmlns="http://www.w3.org/2000/svg">
<path d="M9.25 9.25C6.90279 9.25 5 11.1528 5 13.5V30.5L5.00005 30.5218C5.01181 32.859 6.91007 34.75 9.25 34.75H20.9375C21.5243 34.75 22 34.2743 22 33.6875C22 33.1007 21.5243 32.625 20.9375 32.625H9.25C8.26644 32.625 7.43896 31.9568 7.19675 31.0496L19.1826 23.6736L22 25.3641L36.875 16.4391V23.0625C36.875 23.6493 37.3507 24.125 37.9375 24.125C38.5243 24.125 39 23.6493 39 23.0625V13.5C39 11.1528 37.0972 9.25 34.75 9.25H9.25ZM17.1297 22.4419L7.125 28.5986V16.4391L17.1297 22.4419ZM7.125 13.9609V13.5C7.125 12.3264 8.0764 11.375 9.25 11.375H34.75C35.9236 11.375 36.875 12.3264 36.875 13.5V13.9609L22 22.8859L7.125 13.9609Z" fill="#BE1E2D"/>
<path d="M35.2743 35.3207C37.4205 35.3207 38.6469 33.4997 38.6469 31.019V30.573C38.6469 27.1632 36.1105 24.125 31.6043 24.125H31.53C27.1446 24.125 24.125 27.0145 24.125 31.4185V31.8738C24.125 36.4914 27.1818 39 31.2605 39H31.3535C32.617 39 33.5183 38.8421 33.9828 38.6284V37.0767C33.4625 37.309 32.552 37.4577 31.4742 37.4577H31.3813C28.5475 37.4577 25.9182 35.7853 25.9182 31.818V31.4835C25.9182 27.9622 28.1666 25.6952 31.53 25.6952H31.6136C34.8748 25.6952 36.8909 27.925 36.8909 30.638V30.8889C36.8909 32.9608 36.2034 33.8435 35.5344 33.8435C35.042 33.8435 34.6611 33.5276 34.6611 32.9515V28.2967H32.7378V29.5045H32.6728C32.4963 28.8727 31.8923 28.1666 30.6473 28.1666C28.9935 28.1666 27.9715 29.3466 27.9715 31.1398V32.264C27.9715 34.1594 29.0121 35.3114 30.6473 35.3114C31.6508 35.3114 32.552 34.8283 32.8029 33.9457H32.8958C33.1466 34.8376 34.2058 35.3207 35.2743 35.3207ZM30.062 31.9481V31.4649C30.062 30.3036 30.5451 29.7833 31.2791 29.7833C31.9109 29.7833 32.4963 30.1921 32.4963 31.2884V32.0689C32.4963 33.286 31.9574 33.6483 31.2977 33.6483C30.5451 33.6483 30.062 33.1931 30.062 31.9481Z" fill="#BE1E2D"/>
</svg>
