<svg width="34" height="34" viewBox="0 0 34 34" fill="none" xmlns="http://www.w3.org/2000/svg">
<path d="M26.5625 34C30.6701 34 34 30.6701 34 26.5625C34 22.4549 30.6701 19.125 26.5625 19.125C22.4549 19.125 19.125 22.4549 19.125 26.5625C19.125 30.6701 22.4549 34 26.5625 34ZM27.625 23.375V25.5H29.75C30.3368 25.5 30.8125 25.9757 30.8125 26.5625C30.8125 27.1493 30.3368 27.625 29.75 27.625H27.625V29.75C27.625 30.3368 27.1493 30.8125 26.5625 30.8125C25.9757 30.8125 25.5 30.3368 25.5 29.75V27.625H23.375C22.7882 27.625 22.3125 27.1493 22.3125 26.5625C22.3125 25.9757 22.7882 25.5 23.375 25.5H25.5V23.375C25.5 22.7882 25.9757 22.3125 26.5625 22.3125C27.1493 22.3125 27.625 22.7882 27.625 23.375Z" fill="white"/>
<path d="M23.375 10.625C23.375 14.1458 20.5208 17 17 17C13.4792 17 10.625 14.1458 10.625 10.625C10.625 7.10418 13.4792 4.25 17 4.25C20.5208 4.25 23.375 7.10418 23.375 10.625ZM17 14.875C19.3472 14.875 21.25 12.9722 21.25 10.625C21.25 8.27779 19.3472 6.375 17 6.375C14.6528 6.375 12.75 8.27779 12.75 10.625C12.75 12.9722 14.6528 14.875 17 14.875Z" fill="white"/>
<path d="M17.5441 29.75C17.3042 29.0711 17.1387 28.357 17.0575 27.6176H6.375C6.37803 27.0932 6.70173 25.5222 8.14321 24.0807C9.52925 22.6947 12.1356 21.25 17 21.25C17.5535 21.25 18.0779 21.2687 18.5745 21.3039C19.0529 20.5786 19.6275 19.9222 20.2801 19.3531C19.2888 19.2061 18.1985 19.125 17 19.125C6.375 19.125 4.25 25.5 4.25 27.625C4.25 29.75 6.375 29.75 6.375 29.75H17.5441Z" fill="white"/>
</svg>
