<svg width="22" height="22" viewBox="0 0 22 22" fill="none" xmlns="http://www.w3.org/2000/svg">
<path d="M9.65961 9.66C9.30286 10.0149 9.10147 10.4968 9.09961 11C9.09961 11.5039 9.29979 11.9872 9.65611 12.3435C10.0124 12.6998 10.4957 12.9 10.9996 12.9C11.5028 12.8981 11.9847 12.6968 12.3396 12.34" stroke="#BE1E2D" stroke-width="1.5" stroke-linecap="round" stroke-linejoin="round"/>
<path d="M11.0008 5.3C9.87343 5.3 8.77139 5.6343 7.83403 6.26063C6.89667 6.88695 6.16609 7.77717 5.73467 8.81871C5.30325 9.86025 5.19037 11.0063 5.41031 12.112C5.63024 13.2177 6.17312 14.2334 6.97028 15.0305C7.76743 15.8277 8.78308 16.3705 9.88877 16.5905C10.9945 16.8104 12.1405 16.6975 13.1821 16.2661C14.2236 15.8347 15.1138 15.1041 15.7402 14.1668C16.3665 13.2294 16.7008 12.1274 16.7008 11" stroke="#BE1E2D" stroke-width="1.5" stroke-linecap="round" stroke-linejoin="round"/>
<path d="M11 1.5C9.12108 1.5 7.28435 2.05717 5.72209 3.10104C4.15982 4.14491 2.94218 5.62861 2.22315 7.36451C1.50412 9.10041 1.31598 11.0105 1.68254 12.8534C2.0491 14.6962 2.95389 16.3889 4.28249 17.7175C5.61109 19.0461 7.30383 19.9509 9.14665 20.3175C10.9895 20.684 12.8996 20.4959 14.6355 19.7769C16.3714 19.0578 17.8551 17.8402 18.899 16.2779C19.9428 14.7157 20.5 12.8789 20.5 11M14.525 7.476L11.95 10.05" stroke="#BE1E2D" stroke-width="1.5" stroke-linecap="round" stroke-linejoin="round"/>
<path d="M19.9392 4.844L16.6992 5.3L17.1552 2.06C17.1586 2.02237 17.1506 1.98459 17.1324 1.9515C17.1142 1.91841 17.0865 1.8915 17.0529 1.87422C17.0193 1.85694 16.9813 1.85007 16.9438 1.85448C16.9063 1.8589 16.8709 1.8744 16.8422 1.899L14.6942 4.036C14.4736 4.25822 14.3113 4.53153 14.2218 4.83161C14.1323 5.13169 14.1184 5.44923 14.1812 5.756L14.5232 7.476L16.2432 7.817C16.55 7.87985 16.8676 7.86591 17.1676 7.77641C17.4677 7.68691 17.741 7.52463 17.9632 7.304L20.0992 5.157C20.1239 5.12827 20.1395 5.09281 20.1439 5.05518C20.1483 5.01755 20.1413 4.97947 20.1239 4.94582C20.1065 4.91218 20.0794 4.88451 20.0461 4.86636C20.0129 4.84822 19.975 4.84043 19.9372 4.844" stroke="#BE1E2D" stroke-width="1.5" stroke-linecap="round" stroke-linejoin="round"/>
</svg>
