<svg width="16" height="16" viewBox="0 0 16 16" fill="none" xmlns="http://www.w3.org/2000/svg">
<path fill-rule="evenodd" clip-rule="evenodd" d="M1.88547 0.510994C2.06045 0.336283 2.27055 0.200753 2.50187 0.113384C2.73318 0.026016 2.98043 -0.011195 3.22721 0.00421719C3.47399 0.0196294 3.71469 0.0873129 3.93333 0.202782C4.15198 0.318252 4.34359 0.47887 4.49547 0.673994L6.29047 2.97999C6.61947 3.40299 6.73547 3.95399 6.60547 4.47399L6.05847 6.66399C6.03039 6.77743 6.03201 6.8962 6.06319 7.00883C6.09437 7.12145 6.15405 7.22415 6.23647 7.30699L8.69347 9.76399C8.77642 9.84658 8.87928 9.90636 8.9921 9.93754C9.10492 9.96873 9.22388 9.97026 9.33747 9.94199L11.5265 9.39499C11.7831 9.33121 12.0509 9.32641 12.3096 9.38097C12.5684 9.43553 12.8114 9.54802 13.0205 9.70999L15.3265 11.504C16.1555 12.149 16.2315 13.374 15.4895 14.115L14.4555 15.149C13.7155 15.889 12.6095 16.214 11.5785 15.851C8.93914 14.9236 6.54301 13.4127 4.56847 11.431C2.58684 9.45674 1.07602 7.06096 0.148471 4.42199C-0.213529 3.39199 0.111471 2.28499 0.851471 1.54499L1.88547 0.510994Z" fill="#BE1E2D"/>
</svg>
