<svg width="34" height="34" viewBox="0 0 34 34" fill="none" xmlns="http://www.w3.org/2000/svg">
<path d="M7.76448 2.82304C7.23229 2.1388 6.22083 2.07583 5.60788 2.68878L3.4108 4.88586C2.38341 5.91325 2.00572 7.36877 2.45459 8.6455C4.25717 13.7726 7.20832 18.5868 11.3108 22.6892C15.4132 26.7917 20.2274 29.7428 25.3545 31.5454C26.6312 31.9943 28.0868 31.6166 29.1141 30.5892L31.3112 28.3921C31.9242 27.7792 31.8612 26.7677 31.177 26.2355L26.2763 22.4239C25.9268 22.152 25.4716 22.056 25.042 22.1634L20.3902 23.3263C19.1267 23.6422 17.7901 23.272 16.8692 22.351L11.649 17.1308C10.728 16.2099 10.3578 14.8733 10.6737 13.6098L11.8366 8.958C11.944 8.52838 11.848 8.07325 11.5761 7.7237L7.76448 2.82304ZM4.00514 1.08604C5.58214 -0.490957 8.18443 -0.328944 9.55364 1.43147L13.3653 6.33213C14.0647 7.23145 14.3119 8.40243 14.0356 9.50773L12.8726 14.1595C12.7499 14.6506 12.8938 15.1701 13.2517 15.5281L18.4719 20.7483C18.8299 21.1062 19.3494 21.2501 19.8405 21.1274L24.4923 19.9644C25.5976 19.6881 26.7685 19.9353 27.6679 20.6347L32.5685 24.4464C34.3289 25.8156 34.491 28.4179 32.914 29.9949L30.7169 32.1919C29.145 33.7638 26.7939 34.4541 24.6027 33.6837C19.1623 31.771 14.0556 28.6395 9.70804 24.292C5.36052 19.9444 2.22902 14.8377 0.316281 9.39728C-0.454075 7.20614 0.236151 4.85503 1.80806 3.28312L4.00514 1.08604Z" fill="#BE1E2D"/>
</svg>
